<svg height="512" viewBox="0 0 64 64" width="512" xmlns="http://www.w3.org/2000/svg"><g id="flat"><path d="m33.306 32.952-.612-1.9a3.384 3.384 0 0 0 2.306-3.279l2 .19a5.171 5.171 0 0 1 -3.694 4.989z" fill="#ceac9a"/><path d="m38 35h-7a1 1 0 0 1 -.707-.293l-3-3 1.414-1.414 2.707 2.707h5.586v-5h2v6a1 1 0 0 1 -1 1z" fill="#66342e"/><path d="m21 28c0 8-6 15-6 15l8 3s6-10 6-18z" fill="#ceac9a"/><path d="m20.707 42.707-1.414-1.414c4.641-4.641 4.707-13.208 4.707-13.293h2c0 .384-.061 9.475-5.293 14.707z" fill="#f4f4e6"/><path d="m39 34v-6h7v3l-1 2 5 11-6 2-3-10z" fill="#ceac9a"/><path d="m7 22h6v4h-6z" fill="#c19581"/><path d="m21 28-8-2v-4h8z" fill="#ceac9a"/><path d="m21 22h-10s5 0 5-4h5z" fill="#66342e"/><path d="m45 18h-24v10h26v-8z" fill="#995f5b"/><path d="m47 22 5 1 3-1 6 1v10l-14-5z" fill="#ceac9a"/><path d="m7 18h-2v4h4z" fill="#66342e"/><path d="m3 22h4v4h-4z" fill="#ceac9a"/><path d="m47 22h-12l-2-4h12l2 2z" fill="#ceac9a"/><path d="m25 24h6v4h-6z" fill="#301a12"/><path d="m24 18h2v3h-2z" fill="#66342e"/><path d="m28 18h2v3h-2z" fill="#66342e"/><g fill="#301a12"><path d="m34 25h2v3h-2z"/><path d="m38 25h2v3h-2z"/><path d="m42 25h2v3h-2z"/></g></g></svg>