<svg height="512" viewBox="0 0 64 64" width="512" xmlns="http://www.w3.org/2000/svg"><g id="flat"><path d="m44 40h-6a1 1 0 0 1 -.937-.649l-3-8 1.874-.7 2.756 7.349h4.893l4.606-4.606.515 2.313-4 4a1 1 0 0 1 -.707.293z" fill="#7d8d9c"/><path d="m55 15h-43l-1 6v4l1 12h2l2-6h43l2-3v-10h-3a3 3 0 0 1 -3-3z" fill="#394d5c"/><path d="m39 31a12.677 12.677 0 0 1 2 6 7.5 7.5 0 0 0 3-6z" fill="#5a6470"/><path d="m27 19h-15.667l-.333 2v4l.167 2h15.833z" fill="#5a6470"/><path d="m11 21h-4l-1-1h-3v6h3l1-1h4z" fill="#394d5c"/><path d="m14 22h2v2h-2z" fill="#aabece"/><path d="m18 22h2v2h-2z" fill="#aabece"/><path d="m22 22h2v2h-2z" fill="#aabece"/><path d="m24 31 4 4-2 7 8 1v-7l1-5z" fill="#5a6470"/><path d="m29 53-6-1 3-10 6 .75z" fill="#394d5c"/><path d="m61 50h-10l-.63-3-.84-4-.42-2-.43-2-.42-2-1.26-6h12l-3 4s5 10 5 15z" fill="#5a6470"/><path d="m22 35v-4h-4v4l-1 2v4l1 2h4l1-2v-4z" fill="#5a6470"/><path d="m56 45v2h-5.63l-.42-2z" fill="#394d5c"/><path d="m54 41v2h-4.47l-.42-2z" fill="#394d5c"/><path d="m53 37v2h-4.32l-.42-2z" fill="#394d5c"/><path d="m20 11h6v4h-6z" fill="#5a6470"/><path d="m46 11h6v4h-6z" fill="#5a6470"/><g fill="#7d8d9c"><path d="m12 12h2v3h-2z"/><path d="m16 12h2v3h-2z"/><path d="m29 12h2v3h-2z"/><path d="m33 12h2v3h-2z"/><path d="m37 12h2v3h-2z"/><path d="m41 12h2v3h-2z"/></g><path d="m37 23h24a0 0 0 0 1 0 0v4a0 0 0 0 1 0 0h-24a2 2 0 0 1 -2-2 2 2 0 0 1 2-2z" fill="#5a6470"/><path d="m27 19h4v4h-4z" fill="#7d8d9c"/><path d="m27 23h4v4h-4z" fill="#aabece"/><path d="m51 18h2v2h-2z" fill="#aabece"/><path d="m47 18h2v2h-2z" fill="#aabece"/><path d="m35 15h9v4h-9z" fill="#5a6470"/><path d="m26 42 8 1v-4l-6.863-.98z" fill="#7d8d9c"/><path d="m52 11h5v2h-5z" fill="#7d8d9c"/></g></svg>