<svg height="512" viewBox="0 0 64 64" width="512" xmlns="http://www.w3.org/2000/svg"><g id="flat"><path d="m33 32h14v2h-14z" fill="#e97424"/><path d="m55.84 54.32-9.84 2.68-1-4 3-1-2-18-2-4v-4h15l-2 6 1.7 9.09z" fill="#543de0"/><path d="m42.4 13h-3.4v-2h-4v2h-4v-2h-4v2h-4v-2h-4v2h-4l2 4h12 3l2 3h7.6l-1.6-4z" fill="#543de0"/><path d="m61 11a3 3 0 0 0 -6 0h-11l-4 5 4 10h17l-3-8 3-2z" fill="#e97424"/><path d="m37 24a5.644 5.644 0 0 1 0 6h7v-4l-.8-2z" fill="#e1462b"/><g fill="#8378ef"><path d="m57 54-1.16.32-1.84-7.32c-.51-2.03.02-4.34 2-5l2.7-.91 1.3 6.91c.49 2.57-.47 5.32-3 6z"/><path d="m50.03 37.242-.958-3.832-1.9-2.855a1 1 0 0 1 .828-1.555h7v2h-5.132l.964 1.445a1 1 0 0 1 .138.313l1 4z"/><path d="m50 39h2v2h-2z"/></g><path d="m15 17h10v12h-10z" fill="#e97424"/><path d="m25 21h4v4h-4z" fill="#394d5c"/><path d="m32 17h-3v17h4v-10h10.2l-1.6-4h-7.6z" fill="#f9bb4b"/><path d="m29 32-7 1-2-4h9z" fill="#394d5c"/><path d="m15 20h7v2h-7z" fill="#f9bb4b"/><path d="m15 24h7v2h-7z" fill="#f9bb4b"/><path d="m7 25-4-2v-6l4-2z" fill="#6a54e8"/><path d="m17 17h-10v-4h8z" fill="#aabece"/><path d="m11 23v-6h-4v6 4h8v-4z" fill="#543de0"/><path d="m49 17 1-2h-4l-1 2 2 5h4z" fill="#f9bb4b"/><path d="m53 17 1-2h-4l-1 2 2 5h4z" fill="#ffd782"/><path d="m15 13h-6v-2l4-2z" fill="#f9bb4b"/><path d="m46 11v-4h3l4 4z" fill="#f9bb4b"/></g></svg>