<svg height="512" viewBox="0 0 64 64" width="512" xmlns="http://www.w3.org/2000/svg"><g id="flat"><path d="m53 25h-2a6.516 6.516 0 0 1 1.365-3.113c.5-.783 1.341-2.093 1.17-2.525-.041-.1-.268-.264-.778-.392-.644-.16-1.1-.12-1.357.122-.578.538-.506 3.935-.395 4.565l-1.99-1.482c-.056-.317-.5-3.126 1.021-4.546a3.26 3.26 0 0 1 3.207-.6 2.85 2.85 0 0 1 2.15 1.594c.55 1.385-.413 2.888-1.344 4.341a6.661 6.661 0 0 0 -1.049 2.036z" fill="#5a6470"/><path d="m35.243 35.97-.486-1.94a3.19 3.19 0 0 0 2.124-1.3 1.985 1.985 0 0 0 .166-1.423l1.9-.621a3.945 3.945 0 0 1 -.3 2.986 5.025 5.025 0 0 1 -3.404 2.298z" fill="#5a6470"/><path d="m42 39h-7a1 1 0 0 1 -.707-.293l-4.293-4.38.7-2.042 4.714 4.715h5.586v-5h2v6a1 1 0 0 1 -1 1z" fill="#7d8d9c"/><path d="m3 26h6v4h-6z" fill="#394d5c"/><path d="m21 32h-12v-6l2-4h10z" fill="#5a6470"/><path d="m57 22h4v18h-4z" fill="#394d5c"/><path d="m53 26h4v6h-4z" fill="#5a6470"/><path d="m15 38h-3l-1-6h5z" fill="#394d5c"/><path d="m12 19h2v6h-2z" fill="#7d8d9c"/><path d="m16 19h2v6h-2z" fill="#7d8d9c"/><path d="m12 27h2v5h-2z" fill="#7d8d9c"/><path d="m16 27h2v5h-2z" fill="#7d8d9c"/><path d="m50 22h-29v10l2 3h8v-3h22v-6z" fill="#394d5c"/><path d="m23 35h6v12h-6z" fill="#5a6470"/><path d="m23 38h3v2h-3z" fill="#394d5c"/><path d="m23 42h3v2h-3z" fill="#394d5c"/><path d="m23 47h6v4h-6z" fill="#394d5c"/><path d="m41 38v-6h9v3l-2 2 9 9-7 7-3-3 2-2z" fill="#5a6470"/><path d="m31 28h4v4h-4z" fill="#5a6470"/><path d="m53 25h-8a1.012 1.012 0 0 0 -.372.071l-4.82 1.929h-4.808v2h5a1.012 1.012 0 0 0 .372-.071l3.628-1.452v1.523h2v-2h2v2h2v-2h3z" fill="#aabece"/><path d="m24 25h2v2h-2z" fill="#aabece"/><path d="m24 29h2v2h-2z" fill="#aabece"/><g fill="#7d8d9c"><path d="m28 19h2v6h-2z"/><path d="m32 22h2v3h-2z"/><path d="m36 21h2v4h-2z"/><path d="m20 19h2v3h-2z"/><path d="m24 19h2v3h-2z"/></g><path d="m45 12v6h-12v-4l8-2z" fill="#394d5c"/><path d="m45 22h-10l2-4h6z" fill="#5a6470"/><path d="m42 12v3h-2v-2.75l1-.25z" fill="#7d8d9c"/></g></svg>