<svg height="512" viewBox="0 0 64 64" width="512" xmlns="http://www.w3.org/2000/svg"><g id="flat"><path d="m36.489 39.8-1.2-1.6c3.33-2.5 2.547-5.493 2.539-5.516h2.009c.051.15 1.176 3.722-3.348 7.116z" fill="#7d8d9c"/><path d="m23 33h11a0 0 0 0 1 0 0v6a0 0 0 0 1 0 0h-11a3 3 0 0 1 -3-3 3 3 0 0 1 3-3z" fill="#7d8d9c"/><g fill="#394d5c"><path d="m12 33-2 1h-7v-6h7l2 1z"/><path d="m43 33h-16l2-6h12z"/><path d="m61 33c-4-1-6-6-6-6h-7l-2 6h5l2 3v13h8s-3-10 0-16z"/></g><path d="m41.667 29 1.333 4h3l1.333-4z" fill="#5a6470"/><path d="m43 42h-7a3 3 0 0 1 -3-3v-6h2v6a1 1 0 0 0 1 1h7z" fill="#5a6470"/><path d="m49 47-6 2-2-16h8l-2 4z" fill="#7d8d9c"/><path d="m27 33h-15v-4h16.333z" fill="#5a6470"/><path d="m30 27h2v3h-2z" fill="#aabece"/><path d="m34 27h2v3h-2z" fill="#aabece"/><path d="m38 27h2v3h-2z" fill="#aabece"/><path d="m48 17-3 1h-22l-3-1h-7v6h7l3-1h22l3 1h3v-6z" fill="#394d5c"/><path d="m37 27h-4l-2-5h8z" fill="#5a6470"/><path d="m31 18h8v4h-8z" fill="#7d8d9c"/><path d="m35 14a2 2 0 0 1 2 2v2a0 0 0 0 1 0 0h-4a0 0 0 0 1 0 0v-2a2 2 0 0 1 2-2z" fill="#394d5c"/></g></svg>