<svg height="512" viewBox="0 0 64 64" width="512" xmlns="http://www.w3.org/2000/svg"><g id="flat"><path d="m36.684 24.949a11.736 11.736 0 0 1 -5.516-4.394l1.664-1.11a9.861 9.861 0 0 0 4.487 3.607z" fill="#e97424"/><path d="m40 27v-4h-2c-5.668-.082-22.009-.548-31-3h-4v11h4c6-2 9-2 9-2z" fill="#f9bb4b"/><path d="m42.242 36.97-.484-1.94a3.19 3.19 0 0 0 2.123-1.3 2 2 0 0 0 .167-1.424l1.9-.62a3.937 3.937 0 0 1 -.3 2.986 5.022 5.022 0 0 1 -3.406 2.298z" fill="#e97424"/><path d="m47 39h-5a4 4 0 0 1 0-8h7a1 1 0 0 1 .948 1.316l-2 6a1 1 0 0 1 -.948.684zm-5-6a2 2 0 0 0 0 4h4.279l1.333-4z" fill="#f9bb4b"/><path d="m40 23v4h-22a2 2 0 0 0 -2 2v2a2 2 0 0 0 2 2h31a4 4 0 0 1 4 4v6h8v-6a14 14 0 0 0 -14-14z" fill="#66342e"/><path d="m61 46s-2 2-4 2-4-2-4-2v-3h8z" fill="#f9bb4b"/><g fill="#995f5b"><path d="m21 32a2 2 0 1 1 2-2 2 2 0 0 1 -2 2z"/><path d="m37 32a2 2 0 1 1 2-2 2 2 0 0 1 -2 2z"/><path d="m43 26h2v2h-2z"/><path d="m56 38h2v2h-2z"/><path d="m58 36h-2a8.009 8.009 0 0 0 -8-8h-1v-2h1a10.011 10.011 0 0 1 10 10z"/></g><path d="m6 23h2v2h-2z" fill="#f4f4e6"/><path d="m45 18a2 2 0 1 0 -3.444 1.378l-2.556 1.622-1 2h9z" fill="#ffd782"/></g></svg>