<svg height="512" viewBox="0 0 64 64" width="512" xmlns="http://www.w3.org/2000/svg"><g id="flat"><path d="m31 41h-6a1 1 0 0 1 -1-1v-4h2v3h5z" fill="#7d8d9c"/><path d="m19 20v8h4v-6l18-2v8h4v-10a2 2 0 0 0 -2-2l-22 2a2 2 0 0 0 -2 2z" fill="#7d8d9c"/><path d="m19 28h28v8h-28z" fill="#5a6470"/><path d="m38 48h-6l-.5-3-.33-2-.34-2-.33-2-.5-3h6z" fill="#394d5c"/><path d="m54 26-2 2h-5v4l7 2 2 2h5v-10z" fill="#394d5c"/><path d="m47 48h-4l-2-12h6z" fill="#394d5c"/><path d="m35 28h12v5h-12z" fill="#aabece"/><path d="m3 30h4v4h-4z" fill="#394d5c"/><path d="m11 30h8v4h-8z" fill="#394d5c"/><path d="m11 36-4-2v-4l4-2z" fill="#5a6470"/><path d="m22 31h2v2h-2z" fill="#f4f4e6"/><path d="m26 31h2v2h-2z" fill="#f4f4e6"/><path d="m30 31h5v2h-5z" fill="#f4f4e6"/><path d="m58 33h-2v-2h-2v-2h4z" fill="#cfdfe8"/><path d="m34 39v2h-3.17l-.33-2z" fill="#cfdfe8"/><path d="m35 43v2h-3.5l-.33-2z" fill="#cfdfe8"/><g fill="#394d5c"><path d="m22 41h-2a1 1 0 0 1 -1-1v-4h2v3h1z"/><path d="m41 28h-9l6-4z"/><path d="m26 23h6v2h-6z"/><path d="m28 24h2v4h-2z"/></g></g></svg>