<svg height="512" viewBox="0 0 64 64" width="512" xmlns="http://www.w3.org/2000/svg"><g id="flat"><path d="m46 36h-11c-3.03 0-3.713-2.73-3.97-3.757l-1.12-5.565 2.07.126 1 5c.461 1.839 1.067 2.196 2.02 2.196h11z" fill="#7d8d9c"/><path d="m3 15h58v8h-58z" fill="#cfdfe8"/><path d="m38 19h-10l-2-4h14z" fill="#394d5c"/><path d="m3 19h10a4 4 0 0 1 4 4 0 0 0 0 1 0 0h-14a0 0 0 0 1 0 0v-4a0 0 0 0 1 0 0z" fill="#aabece"/><path d="m18 23h10v4h-10z" fill="#394d5c"/><path d="m58 33 3-6h-17l4 27h13z" fill="#394d5c"/><path d="m28 23h33v4h-33z" fill="#5a6470"/><path d="m49 36 2 14h6l-2-14z" fill="#7d8d9c"/><path d="m51 15h6v-4h-3z" fill="#394d5c"/><g fill="#aabece"><path d="m19 18h2v2h-2z"/><path d="m23 18h2v2h-2z"/><path d="m47 15h2v5h-2z"/><path d="m51 15h2v5h-2z"/><path d="m43 15h2v5h-2z"/><path d="m55 15h2v5h-2z"/></g><path d="m35 27a12.677 12.677 0 0 1 2 6 7.5 7.5 0 0 0 3-6z" fill="#394d5c"/><path d="m3 12h2v3h-2z" fill="#394d5c"/><path d="m55 31h-6l2-4h6z" fill="#7d8d9c"/></g></svg>