<svg height="512" viewBox="0 0 64 64" width="512" xmlns="http://www.w3.org/2000/svg"><g id="flat"><path d="m36.243 37.97-.486-1.94a3.19 3.19 0 0 0 2.124-1.3 3.388 3.388 0 0 0 .054-1.982l2.014-.062a3.945 3.945 0 0 1 -.3 2.986 5.025 5.025 0 0 1 -3.406 2.298z" fill="#cfdfe8"/><path d="m49.859 36.667-2.674 3.753c-.471.662-.88.636-2.426-.156l-3.071-1.538 3.506-3.506-1.9-.927-3.708 3.707h-3.586a2 2 0 0 1 -2-2v-3h-2v3a4 4 0 0 0 4 4h3.763l4.085 2.044a6.02 6.02 0 0 0 2.629.832 2.786 2.786 0 0 0 2.355-1.321l2.507-3.923z" fill="#394d5c"/><path d="m49 27-5 1-3-3h-8v4h-8v4h14l22 10v-14z" fill="#ad6327"/><path d="m41 25a5.568 5.568 0 0 1 6-2l-3 5z" fill="#cfdfe8"/><path d="m3 25h30v4h-30z" fill="#394d5c"/><g fill="#cfdfe8"><path d="m5 29h20v4h-20z"/><path d="m5 25v-4h3l3 4z"/><path d="m38 25h-8v-4l8 2z"/></g><path d="m36 28h2v2h-2z" fill="#f4f4e6"/><path d="m40 28h2v2h-2z" fill="#f4f4e6"/><path d="m57 41.182 4 1.818v-14l-4-.667z" fill="#ffd782"/></g></svg>