<svg height="512" viewBox="0 0 64 64" width="512" xmlns="http://www.w3.org/2000/svg"><g id="flat"><path d="m12.071 26.372-1.748-4.372h-.323v4h-2v-5a1 1 0 0 1 1-1h2a1 1 0 0 1 .929.628l2 5z" fill="#5a6470"/><path d="m43 37h-7a1 1 0 0 1 -.707-.293l-4.1-4.088.54-2.3 4.681 4.681h5.586v-5h2v6a1 1 0 0 1 -1 1z" fill="#394d5c"/><path d="m3 26h6v4h-6z" fill="#394d5c"/><path d="m19 31h-4l-2-1v-4l2-1h4l2 1v4z" fill="#394d5c"/><path d="m9 26h4v4h-4z" fill="#7d8d9c"/><path d="m21 26h4v4h-4z" fill="#7d8d9c"/><path d="m24 30c0 8-7 18-7 18h9s6-10 6-18z" fill="#5a6470"/><path d="m23.781 45.625-1.562-1.25c3.772-4.714 4.781-14.375 4.786-14.475h1.995c-.047.421-1.082 10.553-5.219 15.725z" fill="#aabece"/><path d="m36.243 33.97-.486-1.94a3.19 3.19 0 0 0 2.124-1.3 1.987 1.987 0 0 0 .166-1.424l1.9-.62a3.945 3.945 0 0 1 -.3 2.986 5.025 5.025 0 0 1 -3.404 2.298z" fill="#7d8d9c"/><path d="m42 36v-6h7v3l-1 2 7 8-6 6-3-3 2-2z" fill="#7d8d9c"/><path d="m25 22h24v8h-24z" fill="#394d5c"/><path d="m61 34h-4l-5-6h-3v-6h12z" fill="#7d8d9c"/><g fill="#5a6470"><path d="m49 22h-6l1-3-1-3h3z"/><path d="m33 18h6v4h-6z"/><path d="m25 19h2v3h-2z"/><path d="m29 19h2v3h-2z"/></g><path d="m54 25h7v2h-7z" fill="#394d5c"/><path d="m57 29h4v2h-4z" fill="#394d5c"/><path d="m16 25h2v3h-2z" fill="#aabece"/><path d="m29 26h4v4h-4z" fill="#aabece"/><path d="m33 26h4v4h-4z" fill="#7d8d9c"/><path d="m40 25h2v2h-2z" fill="#aabece"/><path d="m44 25h2v2h-2z" fill="#aabece"/></g></svg>