<svg height="512" viewBox="0 0 64 64" width="512" xmlns="http://www.w3.org/2000/svg"><g id="flat"><path d="m21 26h-8l2-4h6z" fill="#5a6470"/><path d="m59 22h-34v-8h30z" fill="#5a6470"/><path d="m56 28 3-6h-18v4l4 2v24h11l4-3z" fill="#394d5c"/><path d="m21 22h20v4h-20z" fill="#7d8d9c"/><path d="m57 18h-10l-2-4h10z" fill="#7d8d9c"/><path d="m5 12h6v4h-6z" fill="#5a6470"/><path d="m25 17h10v2h-10z" fill="#7d8d9c"/><path d="m37 17h2v2h-2z" fill="#7d8d9c"/><path d="m41 17h2v2h-2z" fill="#7d8d9c"/><path d="m56 16 5-4v5l-3 3z" fill="#394d5c"/><path d="m45 48h10l4.208-3.156.792 4.156-4 3h-11z" fill="#5a6470"/><g fill="#7d8d9c"><path d="m50 27a2 2 0 1 1 2-2 2 2 0 0 1 -2 2z"/><path d="m51 45a2 2 0 1 1 2-2 2 2 0 0 1 -2 2z"/><path d="m48 29h5v2h-5z"/><path d="m48 33h6v2h-6z"/><path d="m48 37h7v2h-7z"/></g><path d="m3 16v6h3v4h7l2-4h10v-6z" fill="#394d5c"/><path d="m6 22h7v2h-7z" fill="#7d8d9c"/><path d="m38 26v7s5-2 5-6l-2-1z" fill="#5a6470"/><path d="m45 36h-7a5.006 5.006 0 0 1 -5-5v-5h2v5a3 3 0 0 0 3 3h7z" fill="#5a6470"/></g></svg>