<svg height="512" viewBox="0 0 64 64" width="512" xmlns="http://www.w3.org/2000/svg"><g id="flat"><path d="m28.99 46a5 5 0 0 1 -3.855-1.8 5.318 5.318 0 0 1 -1.128-4.378l1.118-6.554h1.975l-1.126 6.9a3.331 3.331 0 0 0 .694 2.754 2.969 2.969 0 0 0 2.322 1.078c1.515 0 7.149-1.775 8.775-2.317l.235 2.017c-.63.205-6.9 2.3-9.01 2.3z" fill="#5a6470"/><path d="m40 15h2v3h-2z" fill="#e97424"/><path d="m44 14h2v5h-2z" fill="#e97424"/><path d="m48 13h2v6h-2z" fill="#e97424"/><path d="m43 22v8h6l4 4h8v-12z" fill="#b2510f"/><path d="m5 18-2 2v4h6l3-2h17v-4z" fill="#e97424"/><g fill="#cc331f"><path d="m35 24h-6v-6h8z"/><path d="m12 22h2v3h-2z"/><path d="m16 22h2v3h-2z"/><path d="m20 22h2v3h-2z"/><path d="m24 22h2v3h-2z"/></g><path d="m5 34-2-2v-4h6l3 2h17v4z" fill="#e97424"/><path d="m12 27h2v3h-2z" fill="#cc331f"/><path d="m16 27h2v3h-2z" fill="#cc331f"/><path d="m20 27h2v3h-2z" fill="#cc331f"/><path d="m24 27h2v3h-2z" fill="#cc331f"/><path d="m35 28h-6v6h8z" fill="#cc331f"/><path d="m43 34h-6l-2-6v-4l2-6h6z" fill="#98a5a6"/><path d="m48 50-8 2-.99-2.97-.63-1.9-.75-2.24-.64-1.91-2.99-8.98h9z" fill="#394d5c"/><path d="m55 22h-12v-4l12-2z" fill="#cc331f"/><path d="m58 31h-4v-2h2v-4h2z" fill="#98a5a6"/><path d="m46 25h2v2h-2z" fill="#98a5a6"/><path d="m50 25h2v2h-2z" fill="#98a5a6"/><path d="m29.99 34s1 4-1 7c0 0 4.478-.223 6.291-3.156l-1.291-3.844z" fill="#98a5a6"/><path d="m41 30h-2l-4-2v-4l4-2h2l-2 4z" fill="#fcf05a"/><path d="m38 18h-18l2-4h14z" fill="#394d5c"/><path d="m6 28h2v3h-2z" fill="#cc331f"/><path d="m6 21h2v3h-2z" fill="#cc331f"/><path d="m43.24 47.97-4.23 1.06-.63-1.9 4.38-1.1z" fill="#98a5a6"/><path d="m42.2 43.98-4.57.91-.64-1.91 4.81-.96z" fill="#98a5a6"/></g></svg>