<svg height="512" viewBox="0 0 64 64" width="512" xmlns="http://www.w3.org/2000/svg"><g id="flat"><path d="m47 39h-6a5.006 5.006 0 0 1 -5-5v-3h2v3a3 3 0 0 0 3 3h6z" fill="#aabece"/><path d="m44 19s4 1 5-1 3-2 5-2a7.651 7.651 0 0 0 -2 5c0 2-2 3-5 3h-3z" fill="#cfdfe8"/><path d="m42.328 35.555-1.664-1.11c1.527-2.291.139-3.723.125-3.738l1.411-1.414c.9.893 2.07 3.35.128 6.262z" fill="#7d8d9c"/><path d="m3 19h24v6h-24z" fill="#cfdfe8"/><path d="m5 25h22v4h-22z" fill="#aabece"/><path d="m31 19h10v12h-10z" fill="#cfdfe8"/><path d="m61 49c-2-15-9-19-9-19v-3h-1a6 6 0 0 1 -6-6v-2h-4v12c8 0 4 18 4 18z" fill="#ad6327"/><path d="m31 22h7v2h-7z" fill="#394d5c"/><path d="m31 26h7v2h-7z" fill="#394d5c"/><path d="m31 31h-2l-2-2v-10h4z" fill="#7d8d9c"/><path d="m45 19h-18l2-4h14z" fill="#aabece"/><path d="m5 19a5.276 5.276 0 0 1 4-5v5z" fill="#aabece"/><path d="m22 19h2v3h-2z" fill="#394d5c"/><path d="m18 19h2v3h-2z" fill="#394d5c"/><g fill="#d3843d"><path d="m49 44h2v2h-2z"/><path d="m47 30h2v2h-2z"/><path d="m56 46h-3v-2h1.807a23.084 23.084 0 0 0 -5.514-10.293l1.414-1.414a24.422 24.422 0 0 1 6.283 12.565 1 1 0 0 1 -.99 1.142z"/></g></g></svg>