<svg height="512" viewBox="0 0 64 64" width="512" xmlns="http://www.w3.org/2000/svg"><g id="flat"><path d="m34 27a18.925 18.925 0 0 1 4 6h2v-6z" fill="#394d5c"/><path d="m59 23h-33v-8h29z" fill="#5a6470"/><path d="m47 15 2-4h2l2 4z" fill="#394d5c"/><path d="m60 50v3h-14l1-4-.1-1-.8-8-.2-2-.6-6-.3-3-4-2v-4h18s-3 4-3 6 4 21 4 21z" fill="#394d5c"/><path d="m46 34h-14a1 1 0 0 1 -1-1v-6h2v5h13z" fill="#5a6470"/><path d="m57 19h-10l-2-4h10z" fill="#7d8d9c"/><path d="m46.39 23.54-2.28-.09-.23-.45-4-8h2.24l4 8z" fill="#394d5c"/><path d="m42.28 23.33-2.17.12-.22-.45-4-8h2.23l4 8z" fill="#394d5c"/><path d="m38.34 23.45h-2.23l-.22-.45-4-8h2.23l4 8z" fill="#394d5c"/><path d="m34.34 23.45h-2.23l-.23-.45-4-8h2.24l4 8z" fill="#394d5c"/><path d="m3 15v6h6l2 4h10v2h5v-12z" fill="#394d5c"/><path d="m11 25h-6v-4h4z" fill="#5a6470"/><g fill="#7d8d9c"><path d="m26 23h15v4h-15z"/><path d="m9 20h14v2h-14z"/><path d="m6 15h2v3h-2z"/><path d="m10 15h2v3h-2z"/><path d="m14 15h2v3h-2z"/><path d="m18 15h2v3h-2z"/></g><path d="m56 17 5-2v3l-3 3z" fill="#394d5c"/><path d="m47 26h2v2h-2z" fill="#5a6470"/><path d="m51 26h2v2h-2z" fill="#5a6470"/><path d="m56 48v2h-9.25l.25-1-.1-1z" fill="#7d8d9c"/><path d="m54 44v2h-7.3l-.2-2z" fill="#7d8d9c"/><path d="m52 40v2h-5.7l-.2-2z" fill="#7d8d9c"/><path d="m50 36v2h-4.1l-.2-2z" fill="#7d8d9c"/><path d="m49 32v2h-3.5l-.2-2z" fill="#7d8d9c"/></g></svg>