<svg height="512" viewBox="0 0 64 64" width="512" xmlns="http://www.w3.org/2000/svg"><g id="flat"><path d="m50 35h-7a5.006 5.006 0 0 1 -5-5v-3h2v3a3 3 0 0 0 3 3h7z" fill="#7d8d9c"/><path d="m42 23h-7l-2-1v-4l2-1h7z" fill="#5a6470"/><path d="m61 42-9 6c-1.33.58-2.22.78-3 .01-.77-1.01-.29-2.05 1-3.01l3-2-.59-1.07-.98-1.75-.78-1.41-.97-1.75-.79-1.42-.89-1.6v-7h10l-3 4z" fill="#ad6327"/><path d="m61 19-14-2h-5v6h-5v4h21v-3l3-2z" fill="#394d5c"/><path d="m43 27v5s5-1 5-5z" fill="#5a6470"/><path d="m47 24a2 2 0 1 1 2-2 2 2 0 0 1 -2 2z" fill="#f4f4e6"/><path d="m53 24a2 2 0 1 1 2-2 2 2 0 0 1 -2 2z" fill="#f4f4e6"/><path d="m8 18h25v4h-25z" fill="#394d5c"/><path d="m8 24-5-4 5-4z" fill="#aabece"/><path d="m19 22h-8l8 4z" fill="#5a6470"/><g fill="#d3843d"><path d="m51.55 33.83-2.66 1.77-.89-1.6v-.2l2.45-1.63z"/><path d="m53.55 36.83-2.9 1.94-.97-1.75 2.77-1.85z"/><path d="m55.55 39.83-3.14 2.1-.98-1.75 3.02-2.01z"/></g></g></svg>