<svg height="512" viewBox="0 0 64 64" width="512" xmlns="http://www.w3.org/2000/svg"><g id="flat"><path d="m45 32h-16l-3-4v-4h19z" fill="#d3843d"/><path d="m52 26-2 2-5-4v8h5l4 4h7v-10z" fill="#ad6327"/><path d="m58 33h-2v-2h-2v-2h4z" fill="#f9bb4b"/><path d="m48 14-3 1h-16l-3-1h-7v6h7l3-1h16l3 1h3v-6z" fill="#394d5c"/><path d="m31 19h4v5h-4z" fill="#7d8d9c"/><path d="m39 19h4v5h-4z" fill="#7d8d9c"/><path d="m33 15h8v4h-8z" fill="#aabece"/><path d="m37 11a2 2 0 0 1 2 2v2a0 0 0 0 1 0 0h-4a0 0 0 0 1 0 0v-2a2 2 0 0 1 2-2z" fill="#394d5c"/><g fill="#ffd782"><path d="m32 27h2v2h-2z"/><path d="m36 27h2v2h-2z"/><path d="m40 27h2v2h-2z"/></g><path d="m32 32h8v4h-8z" fill="#7d8d9c"/><path d="m34 54h-4l4-18h4z" fill="#394d5c"/><path d="m38 54h4l-4-18-1.895 8.526z" fill="#5a6470"/><path d="m11 24-3-1h-5v6h5l3-1h15v-4z" fill="#394d5c"/></g></svg>