<?xml version="1.0" encoding="iso-8859-1"?>
<!-- Generator: Adobe Illustrator 18.1.1, SVG Export Plug-In . SVG Version: 6.00 Build 0)  -->
<svg version="1.1" id="Capa_1" xmlns="http://www.w3.org/2000/svg" xmlns:xlink="http://www.w3.org/1999/xlink" x="0px" y="0px"
	 viewBox="0 0 500.858 500.858" style="enable-background:new 0 0 500.858 500.858;" xml:space="preserve">
<g>
	<g>
		<path style="fill:#010002;" d="M53.096,447.771c6.348,6.348,14.672,9.527,22.996,9.527s16.639-3.178,22.996-9.527l33.1-33.1
			c20.541,14.477,43.911,25.101,69.117,30.889v18.866c0,16.664,11.835,30.848,28.45,36.432v-50.942v-57.152v-0.179
			c-9.177-1-18.11-2.829-26.686-5.479c-0.602-0.187-1.171-0.431-1.764-0.618c-9.933-3.219-19.338-7.551-28.19-12.746
			c-18.956-11.136-35.148-26.426-47.219-44.748c-14.859-22.557-23.565-49.527-23.565-78.563c0-29.035,8.706-56.006,23.565-78.563
			c12.071-18.314,28.263-33.612,47.219-44.748c8.852-5.194,18.257-9.535,28.19-12.746c0.593-0.195,1.162-0.439,1.764-0.618
			c8.576-2.65,17.509-4.487,26.686-5.479v-0.179v-57.16V0c-16.615,5.584-28.45,19.769-28.45,36.432v18.866
			c-25.207,5.788-48.585,16.42-69.117,30.889l-33.1-33.1c-12.697-12.697-33.278-12.697-45.983,0
			c-12.697,12.697-12.697,33.287,0,45.983l32.718,32.718c-24.231,33.213-38.57,74.23-38.57,118.645s14.339,85.439,38.57,118.637
			l-32.726,32.726C40.399,414.492,40.399,435.082,53.096,447.771z"/>
		<path style="fill:#010002;" d="M261.017,0v50.942v57.152v0.179c9.177,1,18.11,2.829,26.686,5.479
			c0.602,0.187,1.171,0.431,1.764,0.618c12.307,3.983,23.882,9.592,34.473,16.566c18.314,12.071,33.612,28.255,44.748,47.211
			c12.469,21.232,19.744,45.87,19.744,72.271s-7.275,51.047-19.752,72.279c-11.136,18.956-26.426,35.148-44.748,47.211
			c-10.6,6.982-22.167,12.583-34.481,16.574c-0.593,0.195-1.162,0.439-1.764,0.618c-8.576,2.65-17.509,4.487-26.686,5.479v0.179
			v57.152v50.942c16.615-5.584,28.45-19.769,28.45-36.432v-18.866c27.629-6.348,53.08-18.476,74.978-35.14l37.351,37.351
			c6.34,6.348,14.672,9.527,22.988,9.527s16.647-3.178,22.988-9.527c12.697-12.697,12.697-33.287,0-45.975l-38.651-38.651
			c21.695-32.108,34.4-70.906,34.4-112.711s-12.705-80.603-34.392-112.703l38.651-38.651c12.697-12.697,12.697-33.287,0-45.983
			c-12.689-12.697-33.295-12.697-45.975,0l-37.351,37.351c-21.906-16.664-47.349-28.791-74.978-35.14V36.432
			C289.467,19.769,277.631,5.584,261.017,0z"/>
		<path style="fill:#010002;" d="M245.385,230.526c-6.373,0-11.99,3.048-15.631,7.714c-2.642,3.381-4.276,7.576-4.276,12.193
			c0,4.617,1.642,8.819,4.276,12.193c3.642,4.666,9.258,7.714,15.631,7.714c6.373,0,11.99-3.048,15.631-7.714
			c2.642-3.382,4.276-7.576,4.276-12.193c0-4.617-1.642-8.819-4.276-12.193C257.375,233.575,251.758,230.526,245.385,230.526z"/>
	</g>
</g>
<g>
</g>
<g>
</g>
<g>
</g>
<g>
</g>
<g>
</g>
<g>
</g>
<g>
</g>
<g>
</g>
<g>
</g>
<g>
</g>
<g>
</g>
<g>
</g>
<g>
</g>
<g>
</g>
<g>
</g>
</svg>
