<?xml version="1.0" encoding="iso-8859-1"?>
<!-- Generator: Adobe Illustrator 18.1.1, SVG Export Plug-In . SVG Version: 6.00 Build 0)  -->
<svg version="1.1" id="Capa_1" xmlns="http://www.w3.org/2000/svg" xmlns:xlink="http://www.w3.org/1999/xlink" x="0px" y="0px"
	 viewBox="0 0 466.905 466.905" style="enable-background:new 0 0 466.905 466.905;" xml:space="preserve">
<g>
	<g>
		<path style="fill:#010002;" d="M233.453,466.905c128.724,0,233.453-104.729,233.453-233.453S362.177,0,233.453,0
			S0,104.729,0,233.453S104.729,466.905,233.453,466.905z M233.453,16.257c119.758,0,217.196,97.429,217.196,217.196
			s-97.437,217.196-217.196,217.196S16.257,353.211,16.257,233.453S113.694,16.257,233.453,16.257z"/>
		<path style="fill:#010002;" d="M110.012,356.121c0.122,0.146,0.171,0.325,0.309,0.463c0.138,0.138,0.317,0.187,0.463,0.309
			c31.498,31.303,74.856,50.698,122.668,50.698s91.17-19.387,122.668-50.698c0.146-0.122,0.325-0.171,0.463-0.309
			c0.138-0.138,0.187-0.317,0.309-0.463c31.303-31.498,50.698-74.856,50.698-122.668s-19.387-91.17-50.698-122.668
			c-0.122-0.146-0.171-0.325-0.309-0.463c-0.138-0.138-0.317-0.187-0.463-0.309c-31.498-31.303-74.856-50.698-122.668-50.698
			s-91.17,19.387-122.668,50.698c-0.146,0.122-0.325,0.171-0.463,0.309c-0.138,0.138-0.187,0.317-0.309,0.463
			c-31.303,31.498-50.698,74.856-50.698,122.668S78.701,324.623,110.012,356.121z M116.393,127.887l29.141,29.141
			c-17.834,20.492-28.726,47.186-28.726,76.425s10.892,55.933,28.726,76.425l-29.141,29.141
			c-25.28-28.003-40.822-64.955-40.822-105.566S91.113,155.89,116.393,127.887z M189.965,201.459
			c1.585,1.585,3.666,2.382,5.747,2.382s4.162-0.797,5.747-2.382c3.178-3.178,3.178-8.316,0-11.494l-32.945-32.945
			c15.582-13.258,35.229-21.809,56.802-23.557v46.609c0,4.495,3.642,8.129,8.129,8.129c4.487,0,8.129-3.633,8.129-8.129v-46.601
			c21.573,1.74,41.228,10.291,56.811,23.548l-32.945,32.945c-3.178,3.178-3.178,8.316,0,11.494c1.585,1.585,3.666,2.382,5.747,2.382
			c2.081,0,4.162-0.797,5.747-2.382l32.945-32.945c14.908,17.525,23.963,40.18,23.963,64.939s-9.055,47.414-23.963,64.939
			l-32.945-32.945c-3.178-3.178-8.316-3.178-11.494,0s-3.178,8.316,0,11.494l32.945,32.945
			c-15.574,13.258-35.229,21.809-56.802,23.548v-46.609c0-4.495-3.642-8.129-8.129-8.129c-4.487,0-8.129,3.633-8.129,8.129v46.609
			c-21.573-1.74-41.228-10.291-56.802-23.557l32.945-32.945c3.178-3.178,3.178-8.316,0-11.494s-8.316-3.178-11.494,0l-32.945,32.945
			c-14.916-17.517-23.963-40.171-23.963-64.931s9.055-47.414,23.963-64.931L189.965,201.459z M157.028,321.371
			c18.574,16.168,42.252,26.515,68.296,28.32v41.228c-37.391-1.918-71.328-16.834-97.437-40.407L157.028,321.371z M241.581,390.919
			v-41.228c26.044-1.805,49.722-12.152,68.296-28.32l29.141,29.141C312.91,374.085,278.973,389.001,241.581,390.919z
			 M350.512,339.018l-29.141-29.141c17.842-20.492,28.734-47.186,28.734-76.425s-10.892-55.933-28.734-76.425l29.141-29.141
			c25.28,28.003,40.822,64.955,40.822,105.566S375.792,311.016,350.512,339.018z M309.878,145.534
			c-18.574-16.168-42.252-26.507-68.296-28.32V75.986c37.391,1.918,71.328,16.834,97.437,40.407L309.878,145.534z M225.324,75.986
			v41.228c-26.044,1.805-49.723,12.152-68.296,28.32l-29.141-29.141C153.996,92.82,187.933,77.904,225.324,75.986z"/>
		<circle style="fill:#010002;" cx="233.453" cy="231.421" r="15.753"/>
	</g>
</g>
<g>
</g>
<g>
</g>
<g>
</g>
<g>
</g>
<g>
</g>
<g>
</g>
<g>
</g>
<g>
</g>
<g>
</g>
<g>
</g>
<g>
</g>
<g>
</g>
<g>
</g>
<g>
</g>
<g>
</g>
</svg>
