<?xml version="1.0" encoding="iso-8859-1"?>
<!-- Generator: Adobe Illustrator 18.1.1, SVG Export Plug-In . SVG Version: 6.00 Build 0)  -->
<svg version="1.1" id="Capa_1" xmlns="http://www.w3.org/2000/svg" xmlns:xlink="http://www.w3.org/1999/xlink" x="0px" y="0px"
	 viewBox="0 0 339.002 339.002" style="enable-background:new 0 0 339.002 339.002;" xml:space="preserve">
<g>
	<g>
		<polygon style="fill:#010002;" points="111.956,20.526 92.486,1.05 0,93.537 19.47,113.013 55.922,76.555 119.606,139.941 
			139.04,120.435 75.391,57.085 		"/>
		<polygon style="fill:#010002;" points="227.045,20.526 263.61,57.085 199.962,120.435 219.396,139.941 283.08,76.555 
			319.532,113.013 339.002,93.537 246.515,1.05 		"/>
		<polygon style="fill:#010002;" points="283.08,262.447 219.396,199.055 199.962,218.566 263.61,281.917 227.045,318.476 
			246.515,337.952 339.002,245.465 319.532,225.989 		"/>
		<polygon style="fill:#010002;" points="119.606,199.055 55.922,262.447 19.47,225.989 0,245.465 92.486,337.952 111.956,318.476 
			75.391,281.917 139.04,218.566 		"/>
		<path style="fill:#010002;" d="M173.57,147.698v12.65c3.216,1.754,5.43,5.179,5.43,9.153c0,3.98-2.22,7.399-5.43,9.153v12.65
			c9.929-2.202,17.364-11.116,17.364-21.803C190.934,158.814,183.493,149.9,173.57,147.698z"/>
		<path style="fill:#010002;" d="M146.684,169.501c0,10.693,7.441,19.601,17.364,21.803v-12.65c-3.216-1.754-5.43-5.179-5.43-9.153
			c0-3.98,2.22-7.399,5.43-9.153v-12.65C154.124,149.9,146.684,158.808,146.684,169.501z"/>
	</g>
</g>
<g>
</g>
<g>
</g>
<g>
</g>
<g>
</g>
<g>
</g>
<g>
</g>
<g>
</g>
<g>
</g>
<g>
</g>
<g>
</g>
<g>
</g>
<g>
</g>
<g>
</g>
<g>
</g>
<g>
</g>
</svg>
