<?xml version="1.0" encoding="iso-8859-1"?>
<!-- Generator: Adobe Illustrator 18.1.1, SVG Export Plug-In . SVG Version: 6.00 Build 0)  -->
<svg version="1.1" id="Capa_1" xmlns="http://www.w3.org/2000/svg" xmlns:xlink="http://www.w3.org/1999/xlink" x="0px" y="0px"
	 viewBox="0 0 485.658 485.658" style="enable-background:new 0 0 485.658 485.658;" xml:space="preserve">
<g>
	<g>
		<circle style="fill:#010002;" cx="242.833" cy="239.33" r="21.338"/>
		<path style="fill:#010002;" d="M301.749,58.916c-5.21,0-10.348,0.268-15.452,0.691c94.332,7.852,144.071,86.854,144.071,183.218
			s-49.739,175.358-144.071,183.218c5.097,0.423,10.242,0.691,15.452,0.691c101.567,0,183.909-82.342,183.909-183.909
			S403.324,58.916,301.749,58.916z"/>
		<path style="fill:#010002;" d="M199.361,59.615c-5.097-0.423-10.242-0.691-15.452-0.691C82.342,58.924,0,141.267,0,242.833
			s82.342,183.909,183.909,183.909c5.21,0,10.348-0.268,15.452-0.691c-94.332-7.86-144.071-86.862-144.071-183.226
			S105.029,67.467,199.361,59.615z"/>
	</g>
</g>
<g>
</g>
<g>
</g>
<g>
</g>
<g>
</g>
<g>
</g>
<g>
</g>
<g>
</g>
<g>
</g>
<g>
</g>
<g>
</g>
<g>
</g>
<g>
</g>
<g>
</g>
<g>
</g>
<g>
</g>
</svg>
