<?xml version="1.0" encoding="iso-8859-1"?>
<!-- Generator: Adobe Illustrator 18.1.1, SVG Export Plug-In . SVG Version: 6.00 Build 0)  -->
<svg version="1.1" id="Capa_1" xmlns="http://www.w3.org/2000/svg" xmlns:xlink="http://www.w3.org/1999/xlink" x="0px" y="0px"
	 viewBox="0 0 438.252 438.252" style="enable-background:new 0 0 438.252 438.252;" xml:space="preserve">
<g>
	<g>
		<path style="fill:#010002;" d="M126.359,5.767c0,69.67-56.681,126.351-126.351,126.351v56.9
			c101.046,0,183.251-82.204,183.251-183.251C183.259,5.767,126.359,5.767,126.359,5.767z"/>
		<path style="fill:#010002;" d="M438.252,132.126c-69.67,0-126.351-56.681-126.351-126.351h-56.9
			c0,101.046,82.204,183.251,183.251,183.251V132.126z"/>
		<path style="fill:#010002;" d="M255.002,432.485h56.9c0-69.67,56.681-126.351,126.351-126.351v-56.9
			C337.206,249.226,255.002,331.43,255.002,432.485z"/>
		<path style="fill:#010002;" d="M0,249.226v56.9c69.67,0,126.351,56.681,126.351,126.351h56.9
			C183.259,331.43,101.054,249.226,0,249.226z"/>
		<circle style="fill:#010002;" cx="222.861" cy="218.11" r="23.028"/>
	</g>
</g>
<g>
</g>
<g>
</g>
<g>
</g>
<g>
</g>
<g>
</g>
<g>
</g>
<g>
</g>
<g>
</g>
<g>
</g>
<g>
</g>
<g>
</g>
<g>
</g>
<g>
</g>
<g>
</g>
<g>
</g>
</svg>
