<?xml version="1.0" encoding="iso-8859-1"?>
<!-- Generator: Adobe Illustrator 18.1.1, SVG Export Plug-In . SVG Version: 6.00 Build 0)  -->
<svg version="1.1" id="Capa_1" xmlns="http://www.w3.org/2000/svg" xmlns:xlink="http://www.w3.org/1999/xlink" x="0px" y="0px"
	 viewBox="0 0 358.012 358.012" style="enable-background:new 0 0 358.012 358.012;" xml:space="preserve">
<g>
	<g>
		<polygon style="fill:#010002;" points="274.303,52.983 274.303,88.784 322.211,88.784 322.211,269.228 274.303,269.228 
			274.303,305.029 358.012,305.029 358.012,52.983 		"/>
		<polygon style="fill:#010002;" points="35.801,88.784 83.709,88.784 83.709,52.983 0,52.983 0,305.029 83.709,305.029 
			83.709,269.228 35.801,269.228 		"/>
		<rect x="167.072" y="90.968" style="fill:#010002;" width="23.867" height="54.466"/>
		<polygon style="fill:#010002;" points="304.31,193.515 304.31,169.647 274.303,169.647 217.564,169.647 217.564,193.515 
			274.303,193.515 		"/>
		<rect x="167.072" y="211.749" style="fill:#010002;" width="23.867" height="54.466"/>
		<polygon style="fill:#010002;" points="53.702,169.647 53.702,193.515 83.709,193.515 140.448,193.515 140.448,169.647 
			83.709,169.647 		"/>
	</g>
</g>
<g>
</g>
<g>
</g>
<g>
</g>
<g>
</g>
<g>
</g>
<g>
</g>
<g>
</g>
<g>
</g>
<g>
</g>
<g>
</g>
<g>
</g>
<g>
</g>
<g>
</g>
<g>
</g>
<g>
</g>
</svg>
