<?xml version="1.0" encoding="iso-8859-1"?>
<!-- Generator: Adobe Illustrator 18.1.1, SVG Export Plug-In . SVG Version: 6.00 Build 0)  -->
<svg version="1.1" id="Capa_1" xmlns="http://www.w3.org/2000/svg" xmlns:xlink="http://www.w3.org/1999/xlink" x="0px" y="0px"
	 viewBox="0 0 360.626 360.626" style="enable-background:new 0 0 360.626 360.626;" xml:space="preserve">
<g>
	<g>
		<polygon style="fill:#010002;" points="302.353,53.89 272.113,53.89 272.113,74.774 282.436,74.774 282.436,68.437 311.65,68.437 
			338.87,32.009 360.626,32.009 337.212,10.702 		"/>
		<polygon style="fill:#010002;" points="311.65,292.195 282.436,292.195 282.436,285.852 272.113,285.852 272.113,306.736 
			302.353,306.736 337.212,349.924 360.626,328.616 338.87,328.616 		"/>
		<polygon style="fill:#010002;" points="59.889,306.736 90.124,306.736 90.124,285.852 79.807,285.852 79.807,292.195 
			50.593,292.195 23.372,328.616 1.617,328.616 25.031,349.924 		"/>
		<polygon style="fill:#010002;" points="48.976,68.437 78.196,68.437 78.196,74.774 88.513,74.774 88.513,53.89 58.272,53.89 
			23.414,10.702 0,32.009 21.755,32.009 		"/>
		<polygon style="fill:#010002;" points="265.281,82.232 265.281,84.47 224.259,84.47 224.259,98.146 265.281,98.146 
			265.281,100.133 282.436,100.133 282.436,98.146 298.594,98.146 298.594,84.47 282.436,84.47 282.436,82.232 		"/>
		<polygon style="fill:#010002;" points="95.47,98.146 136.492,98.146 136.492,84.47 95.47,84.47 95.47,82.232 78.315,82.232 
			78.315,84.47 62.157,84.47 62.157,98.146 78.315,98.146 78.315,100.133 95.47,100.133 		"/>
		<polygon style="fill:#010002;" points="299.322,112.431 282.161,112.431 282.161,109.364 271.391,109.364 271.391,127.193 
			282.161,127.193 282.161,124.126 299.322,124.126 		"/>
		<polygon style="fill:#010002;" points="299.322,137.772 282.161,137.772 282.161,134.699 271.391,134.699 271.391,152.534 
			282.161,152.534 282.161,149.467 299.322,149.467 		"/>
		<polygon style="fill:#010002;" points="299.322,163.113 282.161,163.113 282.161,160.046 271.391,160.046 271.391,177.875 
			282.161,177.875 282.161,174.808 299.322,174.808 		"/>
		<polygon style="fill:#010002;" points="299.322,188.455 282.161,188.455 282.161,185.382 271.391,185.382 271.391,203.211 
			282.161,203.211 282.161,200.144 299.322,200.144 		"/>
		<polygon style="fill:#010002;" points="299.322,213.79 282.161,213.79 282.161,210.723 271.391,210.723 271.391,228.552 
			282.161,228.552 282.161,225.485 299.322,225.485 		"/>
		<polygon style="fill:#010002;" points="299.322,239.131 282.161,239.131 282.161,236.058 271.391,236.058 271.391,253.893 
			282.161,253.893 282.161,250.826 299.322,250.826 		"/>
		<polygon style="fill:#010002;" points="271.391,261.4 271.391,279.235 282.161,279.235 282.161,276.162 299.322,276.162 
			299.322,264.473 282.161,264.473 282.161,261.4 		"/>
		<polygon style="fill:#010002;" points="90.482,109.364 79.705,109.364 79.705,112.431 62.551,112.431 62.551,124.126 
			79.705,124.126 79.705,127.193 90.482,127.193 		"/>
		<polygon style="fill:#010002;" points="90.482,134.699 79.705,134.699 79.705,137.772 62.551,137.772 62.551,149.467 
			79.705,149.467 79.705,152.534 90.482,152.534 		"/>
		<polygon style="fill:#010002;" points="90.482,160.046 79.705,160.046 79.705,163.113 62.551,163.113 62.551,174.808 
			79.705,174.808 79.705,177.875 90.482,177.875 		"/>
		<polygon style="fill:#010002;" points="90.482,185.382 79.705,185.382 79.705,188.455 62.551,188.455 62.551,200.144 
			79.705,200.144 79.705,203.211 90.482,203.211 		"/>
		<polygon style="fill:#010002;" points="90.482,210.723 79.705,210.723 79.705,213.79 62.551,213.79 62.551,225.485 
			79.705,225.485 79.705,228.552 90.482,228.552 		"/>
		<polygon style="fill:#010002;" points="90.482,236.058 79.705,236.058 79.705,239.131 62.551,239.131 62.551,250.826 
			79.705,250.826 79.705,253.893 90.482,253.893 		"/>
		<polygon style="fill:#010002;" points="90.482,279.235 90.482,261.4 79.705,261.4 79.705,264.473 62.551,264.473 62.551,276.162 
			79.705,276.162 79.705,279.235 		"/>
		<polygon style="fill:#010002;" points="118.562,227.305 97.212,248.654 118.562,269.998 		"/>
		<polygon style="fill:#010002;" points="242.189,227.305 242.189,269.998 263.539,248.654 		"/>
	</g>
</g>
<g>
</g>
<g>
</g>
<g>
</g>
<g>
</g>
<g>
</g>
<g>
</g>
<g>
</g>
<g>
</g>
<g>
</g>
<g>
</g>
<g>
</g>
<g>
</g>
<g>
</g>
<g>
</g>
<g>
</g>
</svg>
