<?xml version="1.0" encoding="iso-8859-1"?>
<!-- Generator: Adobe Illustrator 18.1.1, SVG Export Plug-In . SVG Version: 6.00 Build 0)  -->
<svg version="1.1" id="Capa_1" xmlns="http://www.w3.org/2000/svg" xmlns:xlink="http://www.w3.org/1999/xlink" x="0px" y="0px"
	 viewBox="0 0 477.554 477.554" style="enable-background:new 0 0 477.554 477.554;" xml:space="preserve">
<g>
	<g>
		<path style="fill:#010002;" d="M267.227,12.193c0-6.73-21.72-12.193-28.45-12.193s-28.45,5.462-28.45,12.193l16.257,180.861
			c0,6.73,5.462,12.193,12.193,12.193s12.193-5.462,12.193-12.193L267.227,12.193z"/>
		<path style="fill:#010002;" d="M272.307,238.777c0,6.73,5.462,12.193,12.193,12.193l180.861,8.129
			c6.73,0,12.193-13.591,12.193-20.321s-5.462-20.321-12.193-20.321L284.5,226.584C277.77,226.584,272.307,232.046,272.307,238.777z
			"/>
		<path style="fill:#010002;" d="M238.777,477.554c6.73,0,28.45-5.462,28.45-12.193L250.97,284.5c0-6.73-5.462-12.193-12.193-12.193
			s-12.193,5.462-12.193,12.193l-16.257,180.861C210.327,472.091,232.046,477.554,238.777,477.554z"/>
		<path style="fill:#010002;" d="M0,238.777c0,6.73,5.462,20.321,12.193,20.321l180.861-8.129c6.73,0,12.193-5.462,12.193-12.193
			s-5.462-12.193-12.193-12.193l-180.861-8.129C5.462,218.455,0,232.046,0,238.777z"/>
		<path style="fill:#010002;" d="M329.305,211.083l94.641-17.005c4.414-0.797,7.356-5.015,6.568-9.437
			c-0.797-4.414-5.04-7.356-9.437-6.568l-94.641,17.005c-4.414,0.797-7.356,5.015-6.568,9.437c0.707,3.926,4.129,6.69,7.99,6.69
			C328.338,211.205,328.817,211.172,329.305,211.083z"/>
		<path style="fill:#010002;" d="M329.305,267.487c-4.406-0.797-8.649,2.154-9.437,6.568c-0.797,4.422,2.146,8.641,6.568,9.437
			l94.641,17.005c0.488,0.089,0.967,0.13,1.447,0.13c3.861,0,7.283-2.764,7.99-6.69c0.797-4.422-2.146-8.641-6.568-9.437
			L329.305,267.487z"/>
		<path style="fill:#010002;" d="M160.954,211.083c0.488,0.089,0.967,0.13,1.447,0.13c3.861,0,7.283-2.764,7.99-6.69
			c0.797-4.422-2.146-8.641-6.568-9.437l-94.641-17.005c-4.43-0.788-8.649,2.154-9.437,6.568c-0.797,4.422,2.146,8.641,6.568,9.437
			L160.954,211.083z"/>
		<path style="fill:#010002;" d="M66.313,284.492c-4.414,0.797-7.356,5.015-6.568,9.437c0.707,3.926,4.129,6.69,7.99,6.69
			c0.48,0,0.959-0.041,1.447-0.13l94.641-17.005c4.414-0.797,7.356-5.015,6.568-9.437c-0.797-4.414-5.032-7.364-9.437-6.568
			L66.313,284.492z"/>
		<circle style="fill:#010002;" cx="238.777" cy="236.745" r="9.657"/>
	</g>
</g>
<g>
</g>
<g>
</g>
<g>
</g>
<g>
</g>
<g>
</g>
<g>
</g>
<g>
</g>
<g>
</g>
<g>
</g>
<g>
</g>
<g>
</g>
<g>
</g>
<g>
</g>
<g>
</g>
<g>
</g>
</svg>
