<?xml version="1.0" encoding="iso-8859-1"?>
<!-- Generator: Adobe Illustrator 18.1.1, SVG Export Plug-In . SVG Version: 6.00 Build 0)  -->
<svg version="1.1" id="Capa_1" xmlns="http://www.w3.org/2000/svg" xmlns:xlink="http://www.w3.org/1999/xlink" x="0px" y="0px"
	 viewBox="0 0 486.002 486.002" style="enable-background:new 0 0 486.002 486.002;" xml:space="preserve">
<g>
	<g>
		<circle style="fill:#010002;" cx="242.993" cy="242.99" r="28.296"/>
		<path style="fill:#010002;" d="M297.105,454.065l5.064,17.346c1.032,3.552,4.276,5.853,7.803,5.853
			c0.748,0,1.52-0.106,2.276-0.325c4.308-1.252,6.779-5.771,5.527-10.079l-5.097-17.476c8.145-2.756,16.095-5.95,23.784-9.608
			l8.316,16.111c1.447,2.796,4.284,4.398,7.234,4.398c1.252,0,2.528-0.293,3.723-0.902c3.983-2.057,5.552-6.958,3.495-10.957
			l-8.372-16.233c12.933-7.397,25.036-16.078,36.132-25.873l53.779,54.136c2.382,2.406,5.519,3.601,8.649,3.601
			c3.105,0,6.218-1.187,8.592-3.544c4.78-4.747,4.812-12.469,0.065-17.241l-53.689-54.055
			c10.405-11.469,19.549-24.077,27.345-37.562l16.2,8.446c1.195,0.626,2.487,0.919,3.747,0.919c2.934,0,5.763-1.585,7.218-4.373
			c2.073-3.975,0.528-8.885-3.455-10.965l-16.054-8.372c3.699-7.665,6.901-15.615,9.697-23.744l17.46,5.178
			c0.772,0.228,1.544,0.333,2.309,0.333c3.512,0,6.747-2.284,7.795-5.82c1.268-4.3-1.187-8.828-5.487-10.104l-17.33-5.137
			c2.292-8.779,3.999-17.777,5.186-26.946l18.135,1.593c0.244,0.024,0.488,0.033,0.723,0.033c4.17,0,7.714-3.195,8.088-7.413
			c0.398-4.479-2.91-8.421-7.381-8.811l-18.029-1.585c0.211-3.942,0.341-7.909,0.341-11.9c0-4.625-0.195-9.202-0.48-13.754
			l18.102-1.91c4.471-0.471,7.706-4.471,7.234-8.941c-0.471-4.471-4.536-7.673-8.933-7.234l-18.029,1.902
			c-1.13-8.21-2.674-16.282-4.698-24.174l17.346-5.056c4.308-1.26,6.779-5.771,5.527-10.079s-5.723-6.804-10.079-5.527
			l-17.476,5.097c-2.756-8.145-5.942-16.095-9.608-23.784l16.111-8.316c3.983-2.057,5.552-6.958,3.495-10.949
			c-2.065-3.991-6.942-5.56-10.957-3.495l-16.225,8.372c-7.405-12.933-16.078-25.044-25.881-36.148l54.144-53.762
			c4.78-4.747,4.812-12.469,0.065-17.249c-4.739-4.771-12.469-4.804-17.241-0.057l-54.055,53.681
			c-11.469-10.396-24.069-19.549-37.554-27.336l8.446-16.192c2.073-3.983,0.528-8.893-3.455-10.965
			c-3.991-2.089-8.893-0.528-10.965,3.447l-8.372,16.054c-7.665-3.699-15.615-6.901-23.744-9.697l5.17-17.452
			c1.268-4.3-1.187-8.828-5.487-10.104c-4.308-1.26-8.836,1.187-10.104,5.487l-5.137,17.33c-8.779-2.292-17.777-3.999-26.946-5.186
			l1.593-18.143c0.398-4.471-2.91-8.413-7.381-8.803c-4.528-0.415-8.413,2.918-8.811,7.389l-1.585,18.029
			c-3.975-0.211-7.942-0.341-11.933-0.341c-4.625,0-9.21,0.195-13.762,0.48l-1.91-18.11c-0.471-4.471-4.56-7.673-8.933-7.234
			c-4.471,0.471-7.706,4.471-7.234,8.941l1.902,18.029c-8.21,1.13-16.282,2.674-24.174,4.698l-5.064-17.346
			c-1.252-4.3-5.723-6.804-10.079-5.527c-4.308,1.26-6.779,5.771-5.527,10.079l5.097,17.476c-8.145,2.756-16.095,5.95-23.784,9.608
			l-8.316-16.111c-2.065-3.991-6.95-5.56-10.957-3.495c-3.983,2.057-5.552,6.958-3.495,10.949l8.372,16.233
			c-12.933,7.397-25.036,16.078-36.14,25.873L45.208,25.518c-4.731-4.755-12.445-4.796-17.216-0.041
			c-4.78,4.747-4.812,12.461-0.065,17.241l53.689,54.047c-10.396,11.469-19.549,24.077-27.345,37.562l-16.2-8.446
			c-3.999-2.097-8.893-0.52-10.965,3.447c-2.073,3.983-0.528,8.893,3.455,10.965l16.054,8.372
			c-3.699,7.673-6.901,15.615-9.697,23.752l-17.46-5.178c-4.308-1.26-8.828,1.187-10.104,5.487c-1.276,4.3,1.187,8.828,5.487,10.104
			l17.33,5.137c-2.292,8.779-3.999,17.777-5.186,26.946l-18.135-1.593c-4.503-0.39-8.413,2.91-8.811,7.389
			c-0.398,4.471,2.91,8.413,7.381,8.803l18.029,1.585c-0.211,3.942-0.341,7.901-0.341,11.9c0,4.625,0.195,9.202,0.48,13.762
			l-18.102,1.902c-4.471,0.471-7.706,4.471-7.234,8.933c0.439,4.178,3.959,7.283,8.072,7.283c0.285,0,0.569-0.016,0.854-0.049
			l18.029-1.902c1.13,8.21,2.674,16.29,4.698,24.182l-17.346,5.064c-4.308,1.252-6.779,5.771-5.527,10.079
			c1.032,3.552,4.276,5.853,7.803,5.853c0.748,0,1.52-0.106,2.276-0.325l17.476-5.097c2.756,8.145,5.942,16.095,9.608,23.784
			l-16.103,8.307c-3.991,2.057-5.56,6.958-3.503,10.949c1.447,2.804,4.284,4.406,7.234,4.406c1.252,0,2.528-0.293,3.715-0.902
			l16.233-8.372c7.405,12.941,16.086,25.044,25.89,36.156l-54.144,53.771c-4.78,4.747-4.812,12.461-0.065,17.241
			c2.382,2.406,5.519,3.601,8.649,3.601c3.105,0,6.218-1.187,8.592-3.544l54.063-53.681c11.469,10.396,24.069,19.549,37.554,27.336
			l-8.446,16.2c-2.073,3.975-0.528,8.893,3.455,10.965c1.195,0.626,2.487,0.919,3.747,0.919c2.934,0,5.763-1.585,7.218-4.373
			l8.372-16.054c7.673,3.699,15.615,6.901,23.744,9.697l-5.178,17.46c-1.268,4.3,1.187,8.828,5.487,10.104
			c0.772,0.228,1.544,0.333,2.309,0.333c3.512,0,6.747-2.284,7.795-5.82l5.137-17.33c8.779,2.292,17.777,3.999,26.946,5.186
			l-1.593,18.135c-0.398,4.479,2.91,8.421,7.381,8.811c0.244,0.024,0.488,0.033,0.723,0.033c4.17,0,7.714-3.195,8.088-7.413
			l1.585-18.029c3.942,0.211,7.901,0.341,11.9,0.341c4.625,0,9.21-0.195,13.762-0.48l1.91,18.102
			c0.439,4.178,3.959,7.283,8.072,7.283c0.285,0,0.569-0.016,0.854-0.049c4.471-0.471,7.706-4.471,7.234-8.933l-1.902-18.029
			C281.132,457.633,289.212,456.089,297.105,454.065z M268.947,421.062c-0.471-4.471-4.528-7.747-8.933-7.234
			c-4.471,0.471-7.706,4.471-7.234,8.933l2.26,21.459c-3.991,0.236-8.007,0.39-12.055,0.39c-3.512,0-7.007-0.089-10.478-0.268
			l1.894-21.598c0.398-4.479-2.91-8.421-7.389-8.811c-4.373-0.398-8.405,2.918-8.803,7.381l-1.886,21.484
			c-8.072-1.073-16.005-2.56-23.744-4.56l6.17-20.809c1.268-4.3-1.187-8.828-5.487-10.104c-4.316-1.292-8.828,1.187-10.104,5.487
			l-6.129,20.671c-7.129-2.479-14.103-5.308-20.842-8.535l10.014-19.208c2.073-3.975,0.528-8.893-3.455-10.965
			c-3.999-2.097-8.893-0.528-10.965,3.455l-9.941,19.07c-12.006-6.991-23.24-15.16-33.514-24.402l76.002-75.474
			c4.78-4.747,4.812-12.461,0.065-17.241c-4.739-4.788-12.469-4.804-17.241-0.065L91.232,375.51
			c-8.665-9.909-16.371-20.663-22.979-32.14l19.102-9.86c3.991-2.057,5.56-6.958,3.503-10.949
			c-2.065-3.999-6.966-5.552-10.949-3.503l-19.232,9.917c-3.203-6.755-6.007-13.737-8.454-20.874l20.703-6.04
			c4.308-1.252,6.779-5.771,5.527-10.079c-1.252-4.3-5.731-6.795-10.079-5.527l-20.825,6.088
			c-1.764-6.966-3.146-14.087-4.162-21.329l21.524-2.268c4.471-0.471,7.706-4.471,7.234-8.933c-0.471-4.471-4.528-7.714-8.933-7.234
			l-21.451,2.26c-0.236-3.991-0.39-8.007-0.39-12.055c0-3.512,0.089-7.007,0.268-10.478l21.598,1.894
			c0.244,0.024,0.488,0.033,0.723,0.033c4.17,0,7.714-3.186,8.088-7.421c0.398-4.471-2.91-8.413-7.381-8.803l-21.476-1.878
			c1.073-8.072,2.561-16.005,4.56-23.744l20.809,6.17c0.772,0.228,1.544,0.341,2.309,0.341c3.512,0,6.747-2.292,7.795-5.82
			c1.276-4.3-1.187-8.828-5.487-10.104l-20.671-6.137c2.479-7.137,5.308-14.103,8.535-20.85l19.2,10.014
			c1.195,0.626,2.487,0.919,3.747,0.919c2.934,0,5.763-1.593,7.218-4.373c2.073-3.983,0.528-8.893-3.455-10.965l-19.062-9.941
			c6.999-12.006,15.168-23.248,24.402-33.522l82.529,83.082c2.39,2.398,5.519,3.601,8.649,3.601c3.105,0,6.218-1.179,8.592-3.544
			c4.78-4.739,4.812-12.461,0.065-17.241l-82.44-82.993c9.909-8.657,20.655-16.363,32.124-22.971l9.86,19.11
			c1.447,2.796,4.284,4.406,7.234,4.406c1.252,0,2.528-0.293,3.723-0.902c3.983-2.057,5.552-6.958,3.495-10.949l-9.933-19.232
			c6.763-3.203,13.737-6.007,20.882-8.454l6.04,20.703c1.032,3.552,4.276,5.853,7.803,5.853c0.748,0,1.52-0.106,2.276-0.333
			c4.308-1.26,6.779-5.771,5.527-10.079l-6.08-20.825c6.966-1.764,14.087-3.146,21.321-4.162l2.268,21.533
			c0.439,4.178,3.959,7.275,8.072,7.275c0.285,0,0.569-0.016,0.853-0.041c4.471-0.471,7.706-4.471,7.234-8.941l-2.26-21.451
			c3.999-0.236,8.015-0.39,12.063-0.39c3.512,0,7.007,0.089,10.478,0.268l-1.894,21.598c-0.398,4.471,2.91,8.413,7.389,8.803
			c0.236,0.024,0.48,0.033,0.715,0.033c4.17,0,7.714-3.186,8.088-7.421l1.886-21.476c8.072,1.073,16.005,2.561,23.752,4.56
			l-6.17,20.809c-1.268,4.3,1.187,8.828,5.487,10.104c0.772,0.228,1.544,0.341,2.309,0.341c3.512,0,6.747-2.292,7.795-5.82
			l6.129-20.671c7.129,2.479,14.095,5.3,20.842,8.535l-10.014,19.2c-2.073,3.983-0.528,8.893,3.455,10.965
			c1.195,0.626,2.487,0.919,3.747,0.919c2.934,0,5.763-1.593,7.218-4.373l9.949-19.07c12.006,6.991,23.24,15.16,33.514,24.402
			l-76.002,75.474c-4.78,4.747-4.812,12.469-0.065,17.249c2.382,2.398,5.519,3.601,8.649,3.601c3.105,0,6.218-1.179,8.592-3.544
			l75.929-75.393c8.665,9.909,16.363,20.663,22.979,32.132l-19.11,9.86c-3.983,2.057-5.552,6.958-3.495,10.949
			c1.447,2.796,4.284,4.406,7.234,4.406c1.252,0,2.528-0.293,3.723-0.902l19.224-9.917c3.203,6.755,6.007,13.737,8.454,20.874
			l-20.703,6.04c-4.308,1.26-6.779,5.771-5.527,10.079c1.032,3.552,4.276,5.861,7.803,5.861c0.748,0,1.52-0.106,2.276-0.333
			l20.817-6.072c1.764,6.966,3.146,14.087,4.162,21.321l-21.524,2.268c-4.471,0.471-7.706,4.471-7.234,8.941
			c0.439,4.178,3.959,7.275,8.072,7.275c0.284,0,0.569-0.016,0.853-0.041l21.451-2.26c0.236,3.991,0.39,7.999,0.39,12.047
			c0,3.512-0.089,7.007-0.268,10.478l-21.598-1.894c-4.56-0.39-8.413,2.918-8.811,7.389c-0.398,4.471,2.91,8.413,7.381,8.803
			l21.484,1.886c-1.073,8.072-2.56,16.005-4.56,23.744l-20.809-6.17c-4.308-1.276-8.828,1.187-10.104,5.487
			c-1.268,4.3,1.187,8.828,5.487,10.104l20.671,6.129c-2.479,7.129-5.3,14.095-8.535,20.842l-19.2-10.014
			c-3.999-2.097-8.885-0.528-10.965,3.455c-2.073,3.975-0.528,8.885,3.455,10.965l19.062,9.941
			c-6.999,12.014-15.168,23.248-24.41,33.522l-82.529-83.074c-4.739-4.788-12.469-4.804-17.241-0.065
			c-4.78,4.747-4.812,12.469-0.065,17.241l82.44,83.001c-9.909,8.657-20.655,16.355-32.116,22.971l-9.86-19.118
			c-2.065-3.983-6.942-5.552-10.957-3.495c-3.983,2.057-5.552,6.958-3.495,10.957l9.925,19.232
			c-6.763,3.203-13.737,6.007-20.882,8.454l-6.04-20.703c-1.252-4.3-5.714-6.804-10.079-5.527
			c-4.308,1.252-6.779,5.771-5.527,10.079l6.072,20.817c-6.966,1.764-14.087,3.146-21.321,4.162L268.947,421.062z"/>
	</g>
</g>
<g>
</g>
<g>
</g>
<g>
</g>
<g>
</g>
<g>
</g>
<g>
</g>
<g>
</g>
<g>
</g>
<g>
</g>
<g>
</g>
<g>
</g>
<g>
</g>
<g>
</g>
<g>
</g>
<g>
</g>
</svg>
