<?xml version="1.0" encoding="iso-8859-1"?>
<!-- Generator: Adobe Illustrator 18.1.1, SVG Export Plug-In . SVG Version: 6.00 Build 0)  -->
<svg version="1.1" id="Capa_1" xmlns="http://www.w3.org/2000/svg" xmlns:xlink="http://www.w3.org/1999/xlink" x="0px" y="0px"
	 viewBox="0 0 467.393 467.393" style="enable-background:new 0 0 467.393 467.393;" xml:space="preserve">
<g>
	<g>
		<path style="fill:#010002;" d="M334.792,156.101l-28.426,64.346h-26.881c-6.739,0-12.193,5.462-12.193,12.193
			c0,6.73,5.454,12.193,12.193,12.193h24.841l30.466,70.67h45.65l-30.84-70.67h41.675l30.466,70.67v-70.67h14.81l30.84,70.67
			V156.101l-28.076,64.346h-17.566v-64.346l-28.426,64.346h-40.952l28.076-64.346H334.792z"/>
		<path style="fill:#010002;" d="M315.503,380.442v-45.65l-72.767-31.368v-26.564c0-6.73-5.454-12.193-12.193-12.193
			c-6.739,0-12.193,5.462-12.193,12.193v30.433l-62.257,27.499v45.65l62.257-27.166v40.968l-62.257,27.499h62.257v18.484
			l-62.257,27.166h159.409l-72.767-31.75v-13.9h72.767l-72.759-31.368v-41.683L315.503,380.442z"/>
		<path style="fill:#010002;" d="M45.65,244.833v66.459l29.36-66.459h40.944l-29.003,66.459h45.65l29.36-66.459h24.369
			c6.739,0,12.193-5.462,12.193-12.193s-5.454-12.193-12.193-12.193h-24.174l-29.555-68.565h-45.65l29.913,68.565H75.206
			L45.65,151.882v68.565H29.913L0,151.891V311.3l29.003-66.459H45.65V244.833z"/>
		<path style="fill:#010002;" d="M218.358,183.706c0,6.73,5.454,12.193,12.193,12.193c6.739,0,12.193-5.462,12.193-12.193V162.88
			l68.556-30.279v-45.65l-68.556,29.913V75.929L311.3,45.65h-68.556V29.913L311.3,0H151.891l66.467,29.003V45.65h-66.467
			l66.467,28.653v41.651l-66.467-29.003v45.65l66.467,28.653V183.706z"/>
		<circle style="fill:#010002;" cx="231.591" cy="231.591" r="12.266"/>
	</g>
</g>
<g>
</g>
<g>
</g>
<g>
</g>
<g>
</g>
<g>
</g>
<g>
</g>
<g>
</g>
<g>
</g>
<g>
</g>
<g>
</g>
<g>
</g>
<g>
</g>
<g>
</g>
<g>
</g>
<g>
</g>
</svg>
