<?xml version="1.0" encoding="iso-8859-1"?>
<!-- Generator: Adobe Illustrator 18.1.1, SVG Export Plug-In . SVG Version: 6.00 Build 0)  -->
<svg version="1.1" id="Capa_1" xmlns="http://www.w3.org/2000/svg" xmlns:xlink="http://www.w3.org/1999/xlink" x="0px" y="0px"
	 viewBox="0 0 479.586 479.586" style="enable-background:new 0 0 479.586 479.586;" xml:space="preserve">
<g>
	<g>
		<path style="fill:#010002;" d="M354.268,16.497v47.845c45.366,31.994,76.823,82.416,83.367,140.307l-75.897,5.519l-0.033,33.872
			l75.921,5.657c-6.552,57.875-38.001,108.281-83.359,140.267v47.845c74.596-40.708,125.318-119.864,125.318-210.66
			S428.864,57.197,354.268,16.497z"/>
		<path style="fill:#010002;" d="M0,227.149c0,90.796,50.722,169.952,125.318,210.652v-47.845
			c-45.431-32.035-76.913-82.546-83.399-140.535l72.556-5.34v-33.872l-72.556-5.34c6.487-57.989,37.969-108.5,83.399-140.535V16.497
			C50.722,57.197,0,136.353,0,227.149z"/>
		<path style="fill:#010002;" d="M324.411,440.264l-23.573-23.573l-40.131-40.131c-5.007-5.007-11.673-7.771-18.761-7.771
			c-7.088,0-13.745,2.756-18.761,7.771l-41.171,41.171l-22.541,22.541c-4.146,4.146-5.69,7.698-6.08,10.51
			c-0.301,2.203,0.073,3.967,0.561,5.145c1.105,2.674,4.528,7.161,14.989,7.161h28.312h85.082h32.628
			c10.461,0,13.884-4.487,14.989-7.161c0.593-1.439,1.049-3.755,0.211-6.722C329.451,446.677,327.825,443.67,324.411,440.264z"/>
		<circle style="fill:#010002;" cx="239.793" cy="227.149" r="19.305"/>
	</g>
</g>
<g>
</g>
<g>
</g>
<g>
</g>
<g>
</g>
<g>
</g>
<g>
</g>
<g>
</g>
<g>
</g>
<g>
</g>
<g>
</g>
<g>
</g>
<g>
</g>
<g>
</g>
<g>
</g>
<g>
</g>
</svg>
