<?xml version="1.0" encoding="iso-8859-1"?>
<!-- Generator: Adobe Illustrator 18.1.1, SVG Export Plug-In . SVG Version: 6.00 Build 0)  -->
<svg version="1.1" id="Capa_1" xmlns="http://www.w3.org/2000/svg" xmlns:xlink="http://www.w3.org/1999/xlink" x="0px" y="0px"
	 viewBox="0 0 349.557 349.557" style="enable-background:new 0 0 349.557 349.557;" xml:space="preserve">
<g>
	<g>
		<circle style="fill:#010002;" cx="174.776" cy="174.779" r="13.921"/>
		<path style="fill:#010002;" d="M14.917,189.696h112.714c8.24,0,14.917-6.677,14.917-14.917s-6.677-14.917-14.917-14.917H14.917
			C6.677,159.861,0,166.538,0,174.779S6.677,189.696,14.917,189.696z"/>
		<path style="fill:#010002;" d="M189.693,14.92c0-8.24-6.677-14.917-14.917-14.917c-8.24,0-14.917,6.677-14.917,14.917v112.714
			c0,8.24,6.677,14.917,14.917,14.917c8.24,0,14.917-6.677,14.917-14.917V14.92z"/>
		<path style="fill:#010002;" d="M349.557,174.779c0-8.24-6.677-14.917-14.917-14.917H221.926c-8.24,0-14.917,6.677-14.917,14.917
			s6.677,14.917,14.917,14.917H334.64C342.874,189.696,349.557,183.019,349.557,174.779z"/>
		<path style="fill:#010002;" d="M159.858,334.637c0,8.24,6.677,14.917,14.917,14.917c8.24,0,14.917-6.677,14.917-14.917V221.923
			c0-8.24-6.677-14.917-14.917-14.917c-8.24,0-14.917,6.677-14.917,14.917V334.637z"/>
	</g>
</g>
<g>
</g>
<g>
</g>
<g>
</g>
<g>
</g>
<g>
</g>
<g>
</g>
<g>
</g>
<g>
</g>
<g>
</g>
<g>
</g>
<g>
</g>
<g>
</g>
<g>
</g>
<g>
</g>
<g>
</g>
</svg>
