<?xml version="1.0" encoding="iso-8859-1"?>
<!-- Generator: Adobe Illustrator 18.1.1, SVG Export Plug-In . SVG Version: 6.00 Build 0)  -->
<svg version="1.1" id="Capa_1" xmlns="http://www.w3.org/2000/svg" xmlns:xlink="http://www.w3.org/1999/xlink" x="0px" y="0px"
	 viewBox="0 0 493.112 493.112" style="enable-background:new 0 0 493.112 493.112;" xml:space="preserve">
<g>
	<g>
		<path style="fill:#010002;" d="M448.047,170.489l11.705-4.991c4.129-1.764,6.048-6.535,4.284-10.665
			c-1.764-4.129-6.527-6.056-10.665-4.284l-11.665,4.975c-8.381-17.883-19.143-34.408-31.88-49.21l22.589-22.589l-22.988-22.988
			l-22.589,22.589c-14.802-12.737-31.336-23.508-49.21-31.88l4.975-11.665c1.764-4.129-0.163-8.909-4.284-10.665
			c-4.154-1.772-8.909,0.163-10.665,4.284l-4.991,11.705c-18.842-7.145-38.928-11.689-59.834-13.258V0h-32.514v31.856
			c-20.907,1.569-40.992,6.105-59.818,13.241l-4.991-11.705c-1.756-4.121-6.535-6.056-10.665-4.284
			c-4.129,1.764-6.048,6.535-4.284,10.665l4.975,11.665c-17.883,8.381-34.408,19.143-49.21,31.88L83.732,60.729L60.745,83.716
			l22.589,22.589c-12.737,14.802-23.508,31.336-31.88,49.21l-11.665-4.975c-4.137-1.764-8.909,0.163-10.665,4.284
			c-1.764,4.129,0.163,8.909,4.284,10.665l11.705,4.991c-7.145,18.834-11.689,38.92-13.258,59.826H0.008v32.514h31.856
			c1.569,20.907,6.105,40.992,13.241,59.818L33.4,327.63c-4.129,1.764-6.056,6.543-4.292,10.665
			c1.317,3.089,4.324,4.934,7.478,4.934c1.065,0,2.146-0.203,3.186-0.65l11.665-4.975c8.381,17.883,19.143,34.408,31.88,49.219
			l-22.589,22.589L83.716,432.4l22.589-22.589c14.802,12.737,31.336,23.5,49.21,31.88l-4.975,11.656
			c-1.764,4.129,0.163,8.909,4.284,10.665c1.04,0.447,2.122,0.65,3.186,0.65c3.162,0,6.161-1.853,7.478-4.934l4.991-11.705
			c18.834,7.137,38.911,11.673,59.818,13.241v31.848h32.514v-31.848c20.907-1.569,40.992-6.105,59.818-13.241l4.991,11.705
			c1.317,3.089,4.324,4.934,7.478,4.934c1.065,0,2.146-0.203,3.186-0.65c4.129-1.764,6.048-6.544,4.284-10.665l-4.975-11.656
			c17.883-8.372,34.408-19.143,49.21-31.88l22.589,22.589l22.988-22.988l-22.589-22.589c12.737-14.802,23.508-31.336,31.88-49.219
			l11.665,4.975c1.04,0.447,2.122,0.65,3.186,0.65c3.162,0,6.161-1.853,7.478-4.934c1.764-4.129-0.163-8.909-4.292-10.665
			l-11.705-4.991c7.137-18.834,11.673-38.911,13.241-59.818h31.856v-32.514h-31.856C459.72,209.4,455.176,189.315,448.047,170.489z
			 M425.612,313.072l-15.672-6.682c-4.129-1.764-8.901,0.163-10.665,4.284s0.163,8.909,4.292,10.665l15.713,6.698
			c-7.113,15.013-16.127,28.946-26.727,41.504l-45.366-45.366L324.2,347.163l45.366,45.366
			c-12.559,10.6-26.491,19.614-41.504,26.727l-6.706-15.704c-1.764-4.129-6.527-6.048-10.665-4.284
			c-4.129,1.764-6.048,6.544-4.284,10.665l6.682,15.664c-15.867,5.909-32.726,9.738-50.251,11.226V322.428h-32.514V436.83
			c-17.525-1.488-34.384-5.316-50.251-11.226l6.682-15.664c1.764-4.129-0.163-8.909-4.284-10.665
			c-4.137-1.764-8.909,0.163-10.665,4.284l-6.706,15.721c-15.013-7.112-28.946-16.127-41.505-26.727l45.366-45.366L145.973,324.2
			l-45.366,45.366c-10.6-12.559-19.614-26.491-26.727-41.505l15.713-6.698c4.129-1.764,6.056-6.544,4.292-10.665
			c-1.756-4.129-6.535-6.048-10.665-4.284l-15.672,6.682c-5.926-15.891-9.754-32.75-11.242-50.275H170.7v-32.514H56.307
			c1.488-17.525,5.316-34.384,11.226-50.251l15.664,6.682c1.04,0.447,2.122,0.658,3.186,0.658c3.162,0,6.161-1.853,7.478-4.942
			c1.764-4.129-0.163-8.909-4.284-10.665l-15.721-6.706c7.113-15.013,16.127-28.946,26.727-41.505l45.366,45.366l22.988-22.988
			l-45.366-45.366c12.559-10.6,26.491-19.614,41.505-26.727l6.706,15.721c1.317,3.089,4.324,4.942,7.478,4.942
			c1.065,0,2.146-0.211,3.186-0.658c4.129-1.764,6.048-6.535,4.284-10.665l-6.682-15.664c15.883-5.926,32.742-9.754,50.267-11.242
			v114.393h32.514V56.299c17.525,1.488,34.384,5.316,50.251,11.226l-6.682,15.664c-1.764,4.129,0.163,8.909,4.284,10.665
			c1.04,0.447,2.122,0.658,3.186,0.658c3.162,0,6.161-1.853,7.478-4.942l6.706-15.721c15.013,7.113,28.946,16.127,41.505,26.727
			l-45.366,45.366l22.988,22.988l45.366-45.366c10.6,12.559,19.614,26.491,26.727,41.505l-15.712,6.714
			c-4.129,1.764-6.048,6.535-4.284,10.665c1.317,3.089,4.324,4.942,7.478,4.942c1.065,0,2.146-0.211,3.186-0.658l15.664-6.682
			c5.909,15.867,9.738,32.726,11.226,50.251H322.436v32.514H436.83C435.35,280.346,431.522,297.205,425.612,313.072z"/>
		<circle style="fill:#010002;" cx="246.572" cy="246.564" r="23.028"/>
	</g>
</g>
<g>
</g>
<g>
</g>
<g>
</g>
<g>
</g>
<g>
</g>
<g>
</g>
<g>
</g>
<g>
</g>
<g>
</g>
<g>
</g>
<g>
</g>
<g>
</g>
<g>
</g>
<g>
</g>
<g>
</g>
</svg>
