<?xml version="1.0" encoding="iso-8859-1"?>
<!-- Generator: Adobe Illustrator 18.1.1, SVG Export Plug-In . SVG Version: 6.00 Build 0)  -->
<svg version="1.1" id="Capa_1" xmlns="http://www.w3.org/2000/svg" xmlns:xlink="http://www.w3.org/1999/xlink" x="0px" y="0px"
	 viewBox="0 0 484.227 484.227" style="enable-background:new 0 0 484.227 484.227;" xml:space="preserve">
<g>
	<g>
		<path style="fill:#010002;" d="M403.673,217.728h57.55c-1.943-17.655-5.95-34.693-11.811-50.844l34.807-34.807l-40.228-40.236
			l-22.354,22.354c-11.282-15.802-24.548-30.084-39.513-42.399l20.899-20.899l-40.228-40.236l-30.336,30.336
			c-21.411-9.632-44.618-15.981-69.012-18.322v57.412C335.556,89.54,392.887,146.042,403.673,217.728z"/>
		<path style="fill:#010002;" d="M22.996,217.728h57.55c10.486-69.654,64.899-124.952,134.13-136.715V23.382
			c-22.158,2.756-43.293,8.787-62.907,17.606l-30.344-30.344L81.188,50.881l20.907,20.907C87.13,84.102,73.864,98.384,62.59,114.186
			L40.236,91.833L0,132.069l34.807,34.807C28.946,183.035,24.938,200.073,22.996,217.728z"/>
		<circle style="fill:#010002;" cx="237.655" cy="242.114" r="20.947"/>
		<path style="fill:#010002;" d="M362.803,473.575l40.228-40.236l-20.899-20.899c14.965-12.315,28.231-26.597,39.513-42.399
			l22.354,22.354l40.228-40.236l-34.807-34.807c5.861-16.151,9.868-33.189,11.811-50.844h-57.55
			c-10.787,71.686-68.117,128.188-140.226,137.649v57.412c24.386-2.341,47.593-8.689,69.012-18.322L362.803,473.575z"/>
		<path style="fill:#010002;" d="M62.582,370.041c11.282,15.802,24.54,30.084,39.505,42.399L81.18,433.347l40.236,40.236
			l30.344-30.344c19.614,8.828,40.749,14.859,62.907,17.607v-57.632c-69.223-11.762-123.644-67.061-134.121-136.714h-57.55
			c1.943,17.655,5.95,34.693,11.811,50.844L0,352.15l40.236,40.236L62.582,370.041z"/>
	</g>
</g>
<g>
</g>
<g>
</g>
<g>
</g>
<g>
</g>
<g>
</g>
<g>
</g>
<g>
</g>
<g>
</g>
<g>
</g>
<g>
</g>
<g>
</g>
<g>
</g>
<g>
</g>
<g>
</g>
<g>
</g>
</svg>
