<svg height="512" viewBox="0 0 64 64" width="512" xmlns="http://www.w3.org/2000/svg"><g id="flat"><path d="m53 39h-2v-2h2a1 1 0 0 0 1-1v-2h2v2a3 3 0 0 1 -3 3z" fill="#7d8d9c"/><path d="m57 48a3 3 0 0 1 -3-3v-1a1 1 0 0 0 -1-1h-2v-2h2a3 3 0 0 1 3 3v1a1 1 0 0 0 2 0v-11h2v11a3 3 0 0 1 -3 3z" fill="#7d8d9c"/><path d="m3 27h5v4h-5z" fill="#e97424"/><path d="m3 31h5v4h-5z" fill="#f9bb4b"/><path d="m3 35h5v4h-5z" fill="#e97424"/><path d="m14 27h17v4h-17z" fill="#5a6470"/><path d="m14 31h17v4h-17z" fill="#7d8d9c"/><path d="m14 35h17v4h-17z" fill="#5a6470"/><path d="m8 27h6v12h-6z" fill="#394d5c"/><path d="m31 27h6v18h-6z" fill="#394d5c"/><path d="m51 31h-14v-4h12z" fill="#5a6470"/><path d="m37 31h14v4h-14z" fill="#7d8d9c"/><path d="m37 35h14v8h-14z" fill="#5a6470"/><path d="m57 23v8h-6v4h10v-15z" fill="#394d5c"/><path d="m40 38h2v2h-2z" fill="#f4f4e6"/><path d="m44 38h2v2h-2z" fill="#f4f4e6"/><path d="m48 27h-2v-4a1 1 0 0 0 -1-1h-9a1 1 0 0 0 -1 1v4h-2v-4a3 3 0 0 1 3-3h9a3 3 0 0 1 3 3z" fill="#7d8d9c"/><path d="m53 16 8 4-4 3-4-2z" fill="#5a6470"/></g></svg>