<svg height="512" viewBox="0 0 64 64" width="512" xmlns="http://www.w3.org/2000/svg"><g id="flat"><path d="m11 14h-6l-2 2v3c2.209 0 4 2.239 4 5s-1.791 5-4 5l1 3h7l10-3 2-4z" fill="#fcf05a"/><path d="m19 25h-8v-11l8-2z" fill="#aabece"/><path d="m41 12h16v14h-16z" fill="#aabece"/><g fill="#5a6470"><path d="m47 12 6-4 2 4z"/><path d="m57 14h4v8h-4z"/><path d="m19 14v11h4l-2 4h-2v5h8v-8a2 2 0 0 1 2-2h12v-10z"/></g><path d="m34 24a5.644 5.644 0 0 1 0 6h7v-6z" fill="#7d8d9c"/><path d="m27 32h17.684v2h-17.684z" fill="#394d5c"/><path d="m54 32 3-6h-16v4l2 4 2 18-3 1 1 4 11-1 4-3z" fill="#5a6470"/><path d="m54 23h-10v-8h4v2h-2v4h6.1a5.008 5.008 0 0 1 4.9-4v2a3 3 0 0 0 -3 3z" fill="#f4f4e6"/><path d="m50 15h2v2h-2z" fill="#fcf05a"/><path d="m53 46-2-9v-3h-4v4l2 10z" fill="#7d8d9c"/><path d="m11 29h8v5h-8z" fill="#aabece"/><path d="m14 16h2v2h-2z" fill="#fcf05a"/><path d="m14 20h2v2h-2z" fill="#fcf05a"/><path d="m29 20h-4l-2-6h4z" fill="#7d8d9c"/><path d="m37 20h-4l-2-6h4z" fill="#7d8d9c"/></g></svg>