<svg height="512" viewBox="0 0 64 64" width="512" xmlns="http://www.w3.org/2000/svg"><g id="flat"><path d="m39.243 38.97-.486-1.94a3.19 3.19 0 0 0 2.124-1.3 3.011 3.011 0 0 0 .054-1.871l2.014-.173a3.945 3.945 0 0 1 -.3 2.986 5.025 5.025 0 0 1 -3.406 2.298z" fill="#7d8d9c"/><path d="m43 41h-4a4 4 0 0 1 -4-4v-3h2v3a2 2 0 0 0 2 2h3.586l3.707-3.707 1.414 1.414-4 4a1 1 0 0 1 -.707.293z" fill="#394d5c"/><path d="m7 26h25v6h-25z" fill="#394d5c"/><path d="m49 28-3 1-4-3h-10v4h-18a2 2 0 0 0 -2 2 2 2 0 0 0 2 2h28l19 11v-15z" fill="#9c2d20"/><path d="m7 32-4 1v-8l4 1z" fill="#7d8d9c"/><path d="m58 39h-2v-5.133l-6.142-.877.284-1.98 7.858 1.123z" fill="#b5554e"/><path d="m32 26h4a2 2 0 0 1 2 2 2 2 0 0 1 -2 2h-4a0 0 0 0 1 0 0v-4a0 0 0 0 1 0 0z" fill="#b5554e"/><path d="m36 21v1h-2a2 2 0 0 0 -2 2v2h7l1-7h-2a2 2 0 0 0 -2 2z" fill="#7d8d9c"/><path d="m40 29h2v2h-2z" fill="#b5554e"/></g></svg>