<svg height="512" viewBox="0 0 64 64" width="512" xmlns="http://www.w3.org/2000/svg"><g id="flat"><path d="m26.379 34.5h4.243v2h-4.243z" fill="#5a6470" transform="matrix(.707 -.707 .707 .707 -16.755 30.55)"/><path d="m32 41h-6a3 3 0 0 1 -3-3v-4h2v4a1 1 0 0 0 1 1h6z" fill="#5a6470"/><path d="m3 25h6v4h-6z" fill="#7d8d9c"/><path d="m59.22 30 1.78 8h-6l-1-2h-12l-2-2h-28l-2.4-4-.6-1v-4l3-4h45l4 2-1.67 5-.33 1z" fill="#e97424"/><path d="m36 21 2 4h6v4h6v-4h5l2-4z" fill="#f9bb4b"/><path d="m52 36h-6l-2-7h6z" fill="#5a6470"/><g fill="#f4f4e6"><path d="m55 32h2v2h-2z"/><path d="m59 29 .22 1h-35.81l-.7.71a1.033 1.033 0 0 1 -.71.29h-5a1.033 1.033 0 0 1 -.71-.29l-.7-.71h-5.99l-.6-1v-1h7a1.033 1.033 0 0 1 .71.29l.7.71h4.18l.7-.71a1.033 1.033 0 0 1 .71-.29h36.33z"/><path d="m13 24h4v2h-4z"/><path d="m19 24h4v2h-4z"/><path d="m25 24h4v2h-4z"/></g><path d="m14 34h6v4h-6z" fill="#cc331f"/><path d="m50 36-2 16-8-2 .41-2.9.29-1.98.3-2.1.28-1.98.28-1.93.28-1.99.16-1.12z" fill="#cc331f"/><path d="m38 46h-6l-2-12h8l-2 3z" fill="#cc331f"/><path d="m45.2 46.02-.4 1.96-4.39-.88.29-1.98z" fill="#e97424"/><path d="m46.2 42.02-.4 1.96-4.8-.96.28-1.98z" fill="#e97424"/><path d="m47.16 38.01-.32 1.98-5.28-.88.28-1.99z" fill="#e97424"/><path d="m38 17h16v4h-16z" fill="#5a6470"/><path d="m14 21v-4l3-3 17-1 2 8h-4l-1-4-13 1v3z" fill="#5a6470"/><path d="m31 24h2v2h-2z" fill="#f4f4e6"/></g></svg>