<svg height="512" viewBox="0 0 64 64" width="512" xmlns="http://www.w3.org/2000/svg"><g id="flat"><path d="m31.868 35.97-.486-1.94c.643-.161 1.455-.469 1.676-1.029a1.935 1.935 0 0 0 -.269-1.452l1.668-1.1a3.835 3.835 0 0 1 .469 3.271 4.019 4.019 0 0 1 -3.058 2.25z" fill="#394d5c"/><path d="m51.16 33.254 4.547-4.547-1.414-1.414-4.21 4.21-3.3-4.128-1.562 1.25 3.864 4.829.947 2.613a1 1 0 0 0 .727.728l4.241 1.205.243-2.146-3.418-.854z" fill="#394d5c"/><path d="m3 25h6v4h-6z" fill="#394d5c"/><path d="m26 22 2 6h3l2 4h4l2-4h3l2-6z" fill="#aabece"/><path d="m9 29 3 7h4l2-4h15l-2-4h-3l-2-6h-14l-3 3z" fill="#e1462b"/><path d="m30 36v-4h3l-2-4h-16a2 2 0 0 0 0 4h13v4a2 2 0 0 0 2 2h7v-2z" fill="#5a6470"/><g fill="#ffd782"><path d="m14 22h2v3h-2z"/><path d="m18 22h2v3h-2z"/><path d="m22 22h2v3h-2z"/><path d="m28 32h-10l-2 4h12z"/></g><path d="m37 38v-6h7v3l-1 2 5 6-6 6-3-3 2-2z" fill="#394d5c"/><path d="m61 38h-6v-10h-13l2-6h5l2 2h4l2-2h4z" fill="#e1462b"/><path d="m37 22h7l-1-3 1-3h-4z" fill="#394d5c"/><path d="m37 32 2-4h7l-2 4z" fill="#5a6470"/><path d="m58 25h3v2h-3z" fill="#f9bb4b"/><path d="m58 29h3v2h-3z" fill="#f9bb4b"/><path d="m58 33h3v2h-3z" fill="#f9bb4b"/><path d="m14 18h4v4h-4z" fill="#394d5c"/><path d="m32 25h2v2h-2z" fill="#f4f4e6"/><path d="m36 25h2v2h-2z" fill="#f4f4e6"/></g></svg>