<svg height="512" viewBox="0 0 64 64" width="512" xmlns="http://www.w3.org/2000/svg"><g id="flat"><path d="m32.6 38.8-1.2-1.6c3.33-2.5 2.554-5.346 2.546-5.37l2-.146c.054.15 1.179 3.722-3.346 7.116z" fill="#5a6470"/><path d="m39 32v3a5 5 0 0 1 -10 0v-3h-2v3a7 7 0 0 0 14 0v-3z" fill="#394d5c"/><path d="m12 16-6-4-1 4z" fill="#5a6470"/><path d="m3 16h6v8h-6z" fill="#7d8d9c"/><path d="m9 16h8v8h-8z" fill="#394d5c"/><path d="m7 24h6v4h-6z" fill="#aabece"/><path d="m21 16h15v16h-15z" fill="#394d5c"/><path d="m17 16h4v12h-4z" fill="#aabece"/><path d="m13 24h4v4h-4z" fill="#7d8d9c"/><path d="m49 15c-1.641 0-3 2-5 3a5.255 5.255 0 0 1 -4.21-.069 6.109 6.109 0 0 0 1.479 4.058c9.473.011 10.231-6.989 7.731-6.989z" fill="#394d5c"/><path d="m61 52c0-19-14-23-14-23v-5h-1a6 6 0 0 1 -6-6v-2h-4v16c9 0 8 20 8 20z" fill="#ad6327"/><g fill="#f9bb4b"><path d="m44 33s4 5 4 15h9a19.377 19.377 0 0 0 -9-15z"/><path d="m39 25h2v2h-2z"/><path d="m42 28h2v2h-2z"/></g><path d="m21 16h10a0 0 0 0 1 0 0v2a3 3 0 0 1 -3 3h-7a0 0 0 0 1 0 0v-5a0 0 0 0 1 0 0z" fill="#5a6470"/><path d="m21 21h7a3 3 0 0 1 3 3 3 3 0 0 1 -3 3h-7a0 0 0 0 1 0 0v-6a0 0 0 0 1 0 0z" fill="#7d8d9c"/><path d="m21 27h7a3 3 0 0 1 3 3v2a0 0 0 0 1 0 0h-10a0 0 0 0 1 0 0v-5a0 0 0 0 1 0 0z" fill="#5a6470"/></g></svg>