<svg height="512" viewBox="0 0 64 64" width="512" xmlns="http://www.w3.org/2000/svg"><g id="flat"><path d="m44 38h-8a1 1 0 0 1 -.707-.293l-3-3-.5-3.332 4.621 4.625h7.586z" fill="#aabece"/><path d="m37.243 35.97-.486-1.94a3.19 3.19 0 0 0 2.124-1.3 3.114 3.114 0 0 0 .054-1.9l2.014-.142a3.945 3.945 0 0 1 -.3 2.986 5.025 5.025 0 0 1 -3.406 2.296z" fill="#394d5c"/><path d="m57 24v13l-7-3.89-2-1.11 2 7h-6l-2-8h-9v3h-6l-4-2v-7l4-4h15l5 5h3v-2z" fill="#ad6327"/><path d="m23 25h-20v-4h24z" fill="#394d5c"/><path d="m5 21v-4h3l3 4z" fill="#5a6470"/><path d="m57 24h4v13h-4z" fill="#66342e"/><path d="m23 30-10-2v-3h10z" fill="#5a6470"/><path d="m27 34h6v12h-6z" fill="#5a6470"/><path d="m27 37h3v2h-3z" fill="#cfdfe8"/><path d="m27 41h3v2h-3z" fill="#cfdfe8"/><path d="m28 30h-2v-3a1 1 0 0 1 .293-.707l2-2a1 1 0 0 1 .707-.293h5v2h-4.586l-1.414 1.414z" fill="#ffd782"/><path d="m36 24h2v2h-2z" fill="#ffd782"/><path d="m40 24h2v2h-2z" fill="#ffd782"/><path d="m50 29v4.11l-2-1.11v-3z" fill="#ffd782"/><g fill="#5a6470"><path d="m37 18h2v3h-2z"/><path d="m33 18h2v3h-2z"/><path d="m29 18h2v3h-2z"/><path d="m26 21h-4v-4l4 1z"/><path d="m4 25h2v3h-2z"/></g></g></svg>