<svg height="512" viewBox="0 0 64 64" width="512" xmlns="http://www.w3.org/2000/svg"><g id="flat"><path d="m33.731 42.007a4.514 4.514 0 0 1 -3.419-1.537 5.5 5.5 0 0 1 -1.3-4.649l1-5.985 2.111-.441-1.139 6.769a3.545 3.545 0 0 0 .809 2.965 2.542 2.542 0 0 0 2.128.871l7.518-1.036.761 1.946-8.065 1.081c-.135.009-.271.016-.404.016z" fill="#394d5c"/><path d="m20 26h38l1 4h-5l4 20h-15l-4-20h-18z" fill="#7d8d9c"/><path d="m58 26h-25v-8h23z" fill="#5a6470"/><path d="m46 14h6v4h-6z" fill="#7d8d9c"/><path d="m42.2 46 .8 4h15l-.8-4z" fill="#5a6470"/><path d="m43 30 3 12h7l-3-12z" fill="#394d5c"/><path d="m21 30h-16v-4h15z" fill="#5a6470"/><path d="m56.8 21.2 1.2-1.2a2.006 2.006 0 0 1 3 0 1.583 1.583 0 0 1 0 2l-3 4z" fill="#7d8d9c"/><path d="m35 30s1 4-1 7c0 0 4 0 5.813-2.933l-.813-4.067z" fill="#5a6470"/><path d="m30 18-2 4h-8l-2-4h-13l-2 4v4h30v-8z" fill="#394d5c"/><g fill="#7d8d9c"><path d="m18 18 2 4h8l2-4z"/><path d="m8 26h-2v-3a1 1 0 0 1 .105-.447l1-2 1.79.894-.895 1.789z"/><path d="m12 26h-2v-3a1 1 0 0 1 .105-.447l1-2 1.79.894-.895 1.789z"/><path d="m16 26h-2v-3a1 1 0 0 1 .105-.447l1-2 1.79.894-.895 1.789z"/></g><path d="m36 21h2v2h-2z" fill="#f4f4e6"/><path d="m40 21h2v2h-2z" fill="#f4f4e6"/><path d="m52 21h2v2h-2z" fill="#f4f4e6"/></g></svg>