<svg height="512" viewBox="0 0 64 64" width="512" xmlns="http://www.w3.org/2000/svg"><g id="flat"><path d="m51 11c-1.333.292-1.667 1.25-3 3-1.355 1.779-5 4-5 4 .715 1.356 2.668 1.5 4 2 8-5 6.442-9.534 4-9z" fill="#cc331f"/><path d="m56.39 51.75a20.094 20.094 0 0 1 -5.39 1.25 3.1 3.1 0 0 1 -3-3c-1-11-6.79-14.47-7.85-14.94l.79-5.24-5.06-4.2-5.34 2.38h-14.54v-6h25v-10s3 8 10 8c1.06 0 3 0 3 3 0 4-5 2-5 5a2.017 2.017 0 0 0 .26.98l8.907 17.9z" fill="#e1462b"/><path d="m25 12v10h-21a23.784 23.784 0 0 1 -.93-4 13.352 13.352 0 0 1 0-2 23.784 23.784 0 0 1 .93-4z" fill="#cc331f"/><path d="m25 10h16v12h-16z" fill="#ef7565"/><path d="m40.262 29.117a5.943 5.943 0 0 0 -6.242-3.03 18.53 18.53 0 0 1 -.02 7.913 12.332 12.332 0 0 0 6.262-4.883z" fill="#394d5c"/><path d="m35 39a7 7 0 1 1 7-7 7.009 7.009 0 0 1 -7 7zm0-12a5 5 0 1 0 5 5 5.006 5.006 0 0 0 -5-5z" fill="#ef7565"/><g fill="#b22419"><path d="m27 14h10a0 0 0 0 1 0 0v4a0 0 0 0 1 0 0h-10a2 2 0 0 1 -2-2 2 2 0 0 1 2-2z" transform="matrix(-1 0 0 -1 62 32)"/><path d="m19 25h2v3h-2z"/><path d="m23 25h2v3h-2z"/><path d="m27 25h2v3h-2z"/></g><path d="m18 16v2h-14.93a7.178 7.178 0 0 1 0-2z" fill="#ef7565"/><path d="m20 16h2v2h-2z" fill="#ef7565"/><path d="m52 50a2 2 0 1 1 2-2 2 2 0 0 1 -2 2z" fill="#394d5c"/><path d="m45 27a2 2 0 1 1 2-2 2 2 0 0 1 -2 2z" fill="#394d5c"/><path d="m56.39 51.75a19.127 19.127 0 0 0 .61-3.75c0-6-6-5-6-5a17.8 17.8 0 0 0 -7-10s.62-3.2 5.26-4.02a5.464 5.464 0 0 0 2.74 2.02c9 5 9 19 9 19s-2.17.93-4.61 1.75z" fill="#394d5c"/></g></svg>