<svg height="512" viewBox="0 0 64 64" width="512" xmlns="http://www.w3.org/2000/svg"><g id="flat"><path d="m28.242 33.97-.484-1.94a3.19 3.19 0 0 0 2.123-1.3 3.038 3.038 0 0 0 .054-1.879l2.013-.165a3.937 3.937 0 0 1 -.3 2.986 5.022 5.022 0 0 1 -3.406 2.298z" fill="#5a6470"/><path d="m52 29h2v9.373h-2z" fill="#5a6470"/><path d="m3 23h30v6h-30z" fill="#394d5c"/><path d="m11 29h4v4h-4z" fill="#7d8d9c"/><path d="m7 29h4v4h-4z" fill="#5a6470"/><path d="m15 29h4v4h-4z" fill="#5a6470"/><path d="m19 29h6v4h-6z" fill="#7d8d9c"/><path d="m36 36h-11a1 1 0 0 1 -1-1v-6h2v5h10z" fill="#394d5c"/><path d="m15 35v-2h-4v2l-1 2v5a3 3 0 0 0 3 3 3 3 0 0 0 3-3v-5z" fill="#394d5c"/><path d="m7 19h-2v4h6z" fill="#7d8d9c"/><path d="m33 23 9-2 3 4h2v4h-14z" fill="#5a6470"/><path d="m47 25v4h10v11l-11-11h-6l15 15h6v-19z" fill="#394d5c"/><path d="m36 24h2v2h-2z" fill="#f4f4e6"/><path d="m40 24h2v2h-2z" fill="#f4f4e6"/><g fill="#5a6470"><path d="m13 20h2v3h-2z"/><path d="m17 20h2v3h-2z"/><path d="m21 20h2v3h-2z"/><path d="m25 20h2v3h-2z"/><path d="m29 20h2v3h-2z"/></g><path d="m40 29-1 3 5 10-7 3-2-10v-6z" fill="#7d8d9c"/></g></svg>