<svg height="512" viewBox="0 0 64 64" width="512" xmlns="http://www.w3.org/2000/svg"><g id="flat"><path d="m33 47h-5c-2.16 0-3.812-1.2-4.908-3.581l-5.092-9.419 1.9-1.447 5 10c1.009 2.196 2.252 2.447 3.1 2.447h5z" fill="#5a6470"/><path d="m3 26h8v4h-8z" fill="#394d5c"/><path d="m35 34h-22l-2-4v-4l1-2h23z" fill="#5a6470"/><path d="m35 34-1 3s5 4 5 10h-7l-2-7v-6z" fill="#394d5c"/><path d="m30 40h-4l2-6h2z" fill="#aabece"/><path d="m17 37v-3h-4v11h4l1-2v-4z" fill="#394d5c"/><path d="m61 26v10l-1 6h-7l1-3-1.33-1-2.67-2-15-2v-10h24z" fill="#394d5c"/><path d="m50 36-.7 4.88-.35 2.48-.3 2.12v.01l-.33 2.26-.32 2.25-7-1 .29-2.03.34-2.4.35-2.44.35-2.41.66-4.65z" fill="#5a6470"/><path d="m30 34h-12l-2-4h12z" fill="#f4f4e6"/><g fill="#fcf05a"><path d="m14 24h2v3h-2z"/><path d="m18 24h2v3h-2z"/><path d="m22 24h2v3h-2z"/><path d="m26 24h2v3h-2z"/><path d="m30 24h2v3h-2z"/></g><path d="m48.65 45.48v.01l-.33 2.26-3.43-2.58-3.6 1.8.34-2.4 2.92-1.46a1 1 0 0 1 1.05.09z" fill="#aabece"/><path d="m49.3 40.88-.35 2.48-3.15-3.14-3.82 1.91.35-2.41 3.22-1.61a1 1 0 0 1 1.16.18z" fill="#aabece"/><path d="m51 27h6v5h-6z" fill="#f4f4e6"/><path d="m46 27h5v2h-5z" fill="#aabece"/><path d="m57 36v2h-4.33l-2.67-2z" fill="#aabece"/><path d="m38 27h2v2h-2z" fill="#aabece"/><path d="m42 27h2v2h-2z" fill="#aabece"/><path d="m33 14-3 1h-8l-2-1h-3v6h3l2-1h8l3 1h9v-6z" fill="#5a6470"/><path d="m37 14h2v3h-2z" fill="#fcf05a"/><path d="m33 14h2v3h-2z" fill="#fcf05a"/><path d="m20 20 2-1h2v5h-4z" fill="#aabece"/><path d="m33 20-3-1h-1v5h4z" fill="#aabece"/></g></svg>