<svg height="512" viewBox="0 0 64 64" width="512" xmlns="http://www.w3.org/2000/svg"><g id="flat"><path d="m44 39-1.172-1.172a9.656 9.656 0 0 0 -6.828-2.828h-21v18h6l2-3h6l2 3h30v-12h-12a7.069 7.069 0 0 1 -5-2z" fill="#ad6327"/><path d="m29 43h-10v-4h6z" fill="#66342e"/><path d="m30 38h2v2h-2z" fill="#d3843d"/><path d="m34 38h2v2h-2z" fill="#d3843d"/><path d="m57 49h-8v-2l8-2z" fill="#66342e"/><path d="m44 48h2v2h-2z" fill="#d3843d"/><path d="m18 35 9-9 9 9z" fill="#f9bb4b"/><path d="m11.55 16.015h9.899v16.971h-9.899z" fill="#ffd782" transform="matrix(.707 -.707 .707 .707 -12.491 18.843)"/><path d="m2.636 14.879h12.728v4.243h-12.728z" fill="#f9bb4b" transform="matrix(.707 -.707 .707 .707 -9.385 11.343)"/><path d="m18.293 25.707-4.293-4.293-1.293 1.293-1.414-1.414 2.707-2.707 5.707 5.707z" fill="#f4f4e6"/><path d="m31.672 27.379h5.657v4.243h-5.657z" fill="#ffd782" transform="matrix(.707 -.707 .707 .707 -10.755 33.036)"/><path d="m35.5 22.55h2v9.899h-2z" fill="#f9bb4b" transform="matrix(.707 -.707 .707 .707 -8.755 33.864)"/><path d="m18 48h2v2h-2z" fill="#d3843d"/></g></svg>