<svg height="512" viewBox="0 0 64 64" width="512" xmlns="http://www.w3.org/2000/svg"><g id="flat"><path d="m19 27h20v4h-20z" fill="#394d5c"/><path d="m15 26v6l-5 .83-1 .17-1-.67-5-3.33 5-3.33 1-.67 1 .17z" fill="#98b398"/><path d="m19 33-4-1v-6l4-1z" fill="#9bc499"/><path d="m53 32h-12l-2-1v-4l2-1h12l2 1v4z" fill="#ad6327"/><path d="m61 33-6-2v-4l6-2z" fill="#394d5c"/><path d="m30 35h-6l-2-4h8z" fill="#7d8d9c"/><path d="m26 35h4v10h-4z" fill="#394d5c"/><path d="m34 31h4v8h-4z" fill="#7d8d9c"/><g fill="#ffd782"><path d="m42 26h2v3h-2z"/><path d="m46 26h2v3h-2z"/><path d="m50 26h2v3h-2z"/></g><path d="m10 25.17v2.83h-2v-2.33l1-.67z" fill="#577557"/><path d="m10 30v2.83l-1 .17-1-.67v-2.33z" fill="#577557"/><path d="m23 23h4v4h-4z" fill="#7d8d9c"/><path d="m30 24h-10v-4h2v2h8z" fill="#394d5c"/><path d="m35 23h2v4h-2z" fill="#7d8d9c"/><path d="m33 22h6v2h-6z" fill="#394d5c"/><path d="m26 27h4v4h-4z" fill="#aabece"/></g></svg>