<svg height="512" viewBox="0 0 64 64" width="512" xmlns="http://www.w3.org/2000/svg"><g id="flat"><path d="m35.243 36.97-.486-1.94a3.19 3.19 0 0 0 2.124-1.3 3.315 3.315 0 0 0 .092-1.927l1.976-.117a3.945 3.945 0 0 1 -.3 2.986 5.025 5.025 0 0 1 -3.406 2.298z" fill="#7d8d9c"/><path d="m31 37h12.473v2h-12.473z" fill="#394d5c"/><path d="m3 26h6v4h-6z" fill="#394d5c"/><path d="m5 26v-6h2l2 6" fill="#5a6470"/><path d="m23 35-14-3v-6h14z" fill="#ad6327"/><path d="m23 26h4v6h-4z" fill="#5a6470"/><path d="m27 24h20v8h-20z" fill="#394d5c"/><path d="m61 38-14-6v-6h14z" fill="#ad6327"/><path d="m32 41-5-2v-7h5z" fill="#5a6470"/><path d="m47 32-1 3 5 10-7 3-2-10v-6z" fill="#ad6327"/><path d="m32 46h-5v-7l5 2z" fill="#7d8d9c"/><g fill="#ffd782"><path d="m58 33h-2v-2h-4v-2h6z"/><path d="m18 29h2v2h-2z"/><path d="m14 29h2v2h-2z"/></g><path d="m31 24h16a0 0 0 0 1 0 0v4a0 0 0 0 1 0 0h-14a2 2 0 0 1 -2-2v-2a0 0 0 0 1 0 0z" fill="#7d8d9c"/><path d="m27 24v-4l3-3 15-1 2 8h-4l-1-4-11 1v3z" fill="#5a6470"/></g></svg>