<svg height="512" viewBox="0 0 64 64" width="512" xmlns="http://www.w3.org/2000/svg"><g id="flat"><path d="m45 39h-4a1 1 0 0 1 -.769-.36l-5.96-7.114 2.5-.166 4.7 5.64h3.369l4.294-1.451.726 1.86-4.542 1.54a1 1 0 0 1 -.318.051z" fill="#cfdfe8"/><path d="m44 35h-2a7.523 7.523 0 0 0 -.89-3.285l.89-.715c.469 0 2 .289 2 4z" fill="#5a6470"/><path d="m56 33v-2l-7-7h-4v-2h-16v2h-2v8h21v5z" fill="#7d8d9c"/><path d="m3 24h24v4h-24z" fill="#5a6470"/><path d="m5 28h4v4h-4z" fill="#cfdfe8"/><path d="m9 28h12v6h-12z" fill="#7d8d9c"/><path d="m21 28h6v4h-6z" fill="#cfdfe8"/><path d="m12 28h2v6h-2z" fill="#cfdfe8"/><path d="m16 28h2v6h-2z" fill="#cfdfe8"/><g fill="#5a6470"><path d="m27 32v4l6-4z"/><path d="m29 19h2v3h-2z"/><path d="m33 19h2v3h-2z"/><path d="m37 19h2v3h-2z"/><path d="m41 19h2v3h-2z"/><path d="m52.879 24.879h4.243v4.243h-4.243z" transform="matrix(.707 -.707 .707 .707 -2.983 46.799)"/><path d="m56 33c-6 0-8 4-8 4 5 2 5 9 5 9h8a18.3 18.3 0 0 0 -5-13z"/></g><path d="m56 41h2v2h-2z" fill="#cfdfe8"/><path d="m42 29h-12v-2h10v-2h2z" fill="#cfdfe8"/><path d="m44 27h2v2h-2z" fill="#cfdfe8"/><path d="m48 27h2v2h-2z" fill="#cfdfe8"/></g></svg>