<svg height="512" viewBox="0 0 64 64" width="512" xmlns="http://www.w3.org/2000/svg"><g id="flat"><path d="m39 46h-4a4 4 0 0 1 -4-4v-3h2v3a2 2 0 0 0 2 2h3.586l3.742-3.742.379 2.449-3 3a1 1 0 0 1 -.707.293z" fill="#66342e"/><g fill="#995f5b"><path d="m35.131 43.97-.485-1.94a3.19 3.19 0 0 0 2.124-1.3 3.616 3.616 0 0 0 .054-2.044h2.013a3.939 3.939 0 0 1 -.3 2.986 5.02 5.02 0 0 1 -3.406 2.298z"/><path d="m44 17-3 1h-12l-7-1h-4v6h4l7-1h12l3 1h3v-6z"/><path d="m57 33h4v14h-4z"/><path d="m45 31h-42v-4h38z"/></g><path d="m51 33v2a2 2 0 0 1 -2 2h-2v-4l-2-2h-27v8h24v12l7-2-2-7h6v5h4v-14z" fill="#ceac9a"/><path d="m17 39h7v4h-7z" fill="#66342e"/><path d="m24 39h4v6h-4z" fill="#995f5b"/><path d="m21 34h2v2h-2z" fill="#f4f4e6"/><path d="m25 31h14a0 0 0 0 1 0 0v2a2 2 0 0 1 -2 2h-10a2 2 0 0 1 -2-2v-2a0 0 0 0 1 0 0z" fill="#66342e"/><path d="m41 34h2v2h-2z" fill="#f4f4e6"/><path d="m29 22h4v5h-4z" fill="#ceac9a"/><path d="m37 22h4v5h-4z" fill="#ceac9a"/><path d="m32 14h6v4h-6z" fill="#ceac9a"/><path d="m14 17h4v6h-4z" fill="#ceac9a"/><path d="m13 39h4v4h-4z" fill="#995f5b"/></g></svg>