<svg height="512" viewBox="0 0 64 64" width="512" xmlns="http://www.w3.org/2000/svg"><g id="flat"><path d="m34.705 43.012a4.516 4.516 0 0 1 -3.393-1.541 5.5 5.5 0 0 1 -1.3-4.65l1-5.986 2.07-.252-1.1 6.582a3.542 3.542 0 0 0 .809 2.964 2.561 2.561 0 0 0 2.05.879l8.55-2.143-.152 2.1-8 2a1.02 1.02 0 0 1 -.164.027c-.121.015-.246.02-.37.02z" fill="#7d8d9c"/><path d="m53 51h-10v-20h9l3 16z" fill="#394d5c"/><path d="m59 13v-4l-2-2h-6l-2 2v4h-34v12h46v-12z" fill="#394d5c"/><circle cx="54" cy="12" fill="#f4f4e6" r="2"/><g fill="#5a6470"><path d="m43 51h8v6h-8z"/><path d="m43 42h7v2h-7z"/><path d="m43 38h7v2h-7z"/><path d="m43 34h7v2h-7z"/><path d="m43 46h4v2h-4z"/><path d="m49 46h2v2h-2z"/><path d="m52 31h-28l-9-6h46z"/></g><path d="m3 17h8v4h-8z" fill="#394d5c"/><path d="m11 15h4v8h-4z" fill="#5a6470"/><path d="m26 16h23v2h-23z" fill="#7d8d9c"/><path d="m26 20h23v2h-23z" fill="#7d8d9c"/><path d="m23 13h-6v-6h3z" fill="#5a6470"/><path d="m23 13h6v-4h-3z" fill="#5a6470"/><path d="m58 22h-4v-2h2v-2h-5v-2h7z" fill="#7d8d9c"/><path d="m18 16h2v2h-2z" fill="#7d8d9c"/><path d="m22 16h2v2h-2z" fill="#7d8d9c"/><path d="m36 31s1 4-1 7c0 0 4.187-.067 6-3l-1-4z" fill="#394d5c"/><circle cx="30" cy="28" fill="#7d8d9c" r="3"/><circle cx="46" cy="28" fill="#7d8d9c" r="3"/></g></svg>