<svg height="512" viewBox="0 0 64 64" width="512" xmlns="http://www.w3.org/2000/svg"><g id="flat"><path d="m7 31-4-1v-4l4-1z" fill="#f9bb4b"/><path d="m18 23h-8l-3 2v6l3 2h8l3-2v-6z" fill="#dd3e46"/><path d="m11 23h6v5h-6z" fill="#f98c96"/><path d="m21 19h4v12h-4z" fill="#c8d952"/><path d="m17 43-5-1v-4l5-1z" fill="#c8d952"/><path d="m25 21h4v6h-4z" fill="#8ec13f"/><path d="m45 15h6v14h-6z" fill="#8ec13f"/><path d="m57 29v2a4 4 0 0 0 4-4v-6a4 4 0 0 0 -4-4h-6v12z" fill="#f9bb4b"/><path d="m33 17a4 4 0 0 0 -4 4v8h16v-12z" fill="#f9bb4b"/><g fill="#f4f4e6"><path d="m58 26h-2v-4h-2v-2h3a1 1 0 0 1 1 1z"/><path d="m40 20h2v2h-2z"/><path d="m36 20h2v2h-2z"/></g><path d="m59 45-5-5 3-5v-6h-28v2h-8v12h26l4 15.75a3.125 3.125 0 0 0 6 0l3-9.75c.837-1.555.249-2.751-1-4z" fill="#dd3e46"/><path d="m17 37h4v6h-4z" fill="#8ec13f"/><path d="m47 43h-12l-3-4 3-4h17z" fill="#9e1240"/><path d="m42 35-3 6 6-2v-4z" fill="#f9bb4b"/><path d="m41 35h-5l-4-6h5z" fill="#f98c96"/><path d="m52 35h-5l-4-6h5z" fill="#f98c96"/><circle cx="27" cy="37" fill="#f9bb4b" r="2"/><path d="m54.946 57.074-1.892-.648 2.8-8.16-3.559-3.559 1.414-1.414 4 4a1 1 0 0 1 .239 1.031z" fill="#9e1240"/><path d="m21 13s.226-6.581-3-9c-4-3-7.513 2.624-3 5s6 4 6 4z" fill="#50b4f8"/><path d="m26 14s1.294-4.41 5-6 6.083 4.575 1 5-6 1-6 1z" fill="#50b4f8"/></g></svg>