<?xml version="1.0" encoding="iso-8859-1"?>
<!-- Generator: Adobe Illustrator 18.1.1, SVG Export Plug-In . SVG Version: 6.00 Build 0)  -->
<svg version="1.1" id="Capa_1" xmlns="http://www.w3.org/2000/svg" xmlns:xlink="http://www.w3.org/1999/xlink" x="0px" y="0px"
	 viewBox="0 0 480.48 480.48" style="enable-background:new 0 0 480.48 480.48;" xml:space="preserve">
<g>
	<g>
		<path style="fill:#010002;" d="M293.515,86.106c56.136,19.842,98.193,69.394,107.273,129.748h13.77h43.781h22.142
			c-4.406-32.978-17.493-56.9-32.961-56.9c-1.081,0-2.138,0.154-3.195,0.382C413.427,81.074,339.1,24.711,251.01,20.069
			C267.609,27.824,282.395,51.706,293.515,86.106z"/>
		<path style="fill:#010002;" d="M458.338,264.626h-43.781h-13.77c-9.08,60.355-51.137,109.906-107.273,129.748
			c-11.12,34.408-25.906,58.29-42.504,66.037c88.089-4.641,162.417-60.997,193.314-139.259c1.057,0.228,2.113,0.382,3.195,0.382
			c15.469,0,28.556-23.922,32.961-56.9h-22.142V264.626z"/>
		<path style="fill:#010002;" d="M32.961,321.526c0.423,0,0.837-0.114,1.252-0.146c30.954,78.14,105.224,134.398,193.224,139.031
			c-16.607-7.747-31.393-31.628-42.504-66.037C128.797,374.532,86.74,324.98,77.66,264.626H65.923H20.11H0
			C4.406,297.603,17.493,321.526,32.961,321.526z"/>
		<path style="fill:#010002;" d="M65.923,215.854H77.66c9.08-60.355,51.137-109.906,107.273-129.748
			c11.12-34.408,25.906-58.29,42.504-66.037c-88,4.633-162.271,60.891-193.224,139.031c-0.415-0.033-0.829-0.146-1.252-0.146
			c-15.469,0-28.556,23.922-32.961,56.9h20.11H65.923z"/>
		<circle style="fill:#010002;" cx="239.224" cy="240.24" r="20.947"/>
	</g>
</g>
<g>
</g>
<g>
</g>
<g>
</g>
<g>
</g>
<g>
</g>
<g>
</g>
<g>
</g>
<g>
</g>
<g>
</g>
<g>
</g>
<g>
</g>
<g>
</g>
<g>
</g>
<g>
</g>
<g>
</g>
</svg>
