<?xml version="1.0" encoding="iso-8859-1"?>
<!-- Generator: Adobe Illustrator 18.1.1, SVG Export Plug-In . SVG Version: 6.00 Build 0)  -->
<svg version="1.1" id="Capa_1" xmlns="http://www.w3.org/2000/svg" xmlns:xlink="http://www.w3.org/1999/xlink" x="0px" y="0px"
	 viewBox="0 0 485.715 485.715" style="enable-background:new 0 0 485.715 485.715;" xml:space="preserve">
<g>
	<g>
		<path style="fill:#010002;" d="M431.778,187.681c-0.138-0.463-0.26-0.927-0.398-1.39c-1.65-5.519-3.577-10.974-5.723-16.363
			c-0.252-0.618-0.48-1.252-0.74-1.87c-2.138-5.202-4.536-10.323-7.137-15.371c-0.382-0.732-0.74-1.479-1.13-2.203
			c-0.853-1.601-1.748-3.178-2.642-4.755l24.784-50.365L388.94,45.512l-50.917,25.052c-0.935-0.52-1.87-1.024-2.812-1.528
			c-0.732-0.39-1.471-0.748-2.203-1.13c-5.04-2.601-10.161-4.999-15.371-7.137c-0.618-0.252-1.244-0.488-1.87-0.74
			c-5.381-2.146-10.835-4.072-16.355-5.723c-0.463-0.138-0.943-0.26-1.406-0.398c-0.211-0.065-0.423-0.122-0.634-0.179L279.082,0
			h-70.499l-18.086,53.128c-0.935,0.26-1.87,0.528-2.804,0.797c-0.471,0.138-0.943,0.26-1.406,0.398
			c-5.519,1.65-10.965,3.577-16.355,5.723c-0.618,0.252-1.252,0.48-1.87,0.74c-5.21,2.138-10.331,4.536-15.371,7.137
			c-0.732,0.374-1.471,0.74-2.195,1.122c-0.943,0.504-1.886,1.016-2.821,1.528L96.758,45.52L46.906,95.373l24.784,50.365
			c-0.894,1.577-1.788,3.146-2.642,4.747c-0.39,0.732-0.756,1.479-1.138,2.219c-2.601,5.04-4.999,10.161-7.129,15.363
			c-0.252,0.618-0.488,1.244-0.74,1.87c-2.146,5.389-4.072,10.844-5.723,16.363c-0.138,0.463-0.26,0.927-0.398,1.39
			c-0.276,0.935-0.536,1.878-0.797,2.821l-53.12,18.086v70.499l53.73,18.289c0.065,0.219,0.122,0.439,0.187,0.65
			c0.13,0.463,0.252,0.927,0.39,1.382c1.65,5.519,3.577,10.974,5.723,16.363c0.252,0.618,0.48,1.252,0.74,1.87
			c2.138,5.202,4.536,10.323,7.137,15.371c0.382,0.732,0.74,1.479,1.13,2.211c0.853,1.601,1.748,3.178,2.642,4.747l-24.784,50.365
			l49.853,49.853l50.917-25.052c0.935,0.52,1.87,1.024,2.812,1.528c0.732,0.39,1.471,0.748,2.211,1.13
			c5.04,2.601,10.161,4.999,15.371,7.137c0.618,0.252,1.244,0.488,1.87,0.74c5.389,2.146,10.844,4.072,16.363,5.723
			c0.463,0.138,0.927,0.26,1.39,0.398c0.219,0.065,0.431,0.122,0.65,0.187l18.289,53.73h70.499l18.086-53.12
			c0.943-0.26,1.878-0.528,2.821-0.797c0.463-0.138,0.927-0.26,1.39-0.398c5.519-1.65,10.974-3.577,16.363-5.723
			c0.618-0.252,1.252-0.48,1.87-0.74c5.202-2.138,10.323-4.528,15.363-7.129c0.74-0.382,1.488-0.748,2.219-1.138
			c0.943-0.504,1.878-1.008,2.812-1.528l50.917,25.052l49.853-49.853l-24.784-50.365c0.894-1.577,1.788-3.154,2.642-4.755
			c0.39-0.723,0.748-1.463,1.122-2.195c2.601-5.048,4.999-10.169,7.137-15.371c0.252-0.618,0.488-1.244,0.74-1.87
			c2.146-5.389,4.072-10.844,5.723-16.363c0.138-0.455,0.26-0.927,0.39-1.382c0.276-0.935,0.545-1.878,0.805-2.821l53.12-18.086
			v-70.499l-53.73-18.289C431.9,188.111,431.843,187.892,431.778,187.681z M271.344,379.832c-0.122,0.024-0.236,0.065-0.358,0.089
			c-3.894,0.797-7.877,1.349-11.876,1.821c-0.699,0.081-1.382,0.236-2.081,0.309c-4.666,0.471-9.389,0.715-14.176,0.715
			s-9.51-0.244-14.176-0.715c-0.699-0.073-1.382-0.228-2.081-0.309c-3.999-0.463-7.982-1.016-11.876-1.821
			c-0.122-0.024-0.244-0.065-0.374-0.089c-54.315-11.291-97.185-54.161-108.476-108.476c-0.024-0.122-0.065-0.244-0.089-0.374
			c-0.797-3.894-1.349-7.868-1.821-11.876c-0.081-0.699-0.236-1.382-0.309-2.081c-0.471-4.666-0.715-9.389-0.715-14.176
			s0.244-9.51,0.715-14.176c0.073-0.699,0.228-1.382,0.309-2.081c0.463-4.007,1.016-7.982,1.821-11.876
			c0.024-0.122,0.065-0.236,0.089-0.358c11.291-54.356,54.201-97.25,108.557-108.508c0.098-0.016,0.187-0.049,0.285-0.073
			c3.926-0.805,7.942-1.366,11.973-1.829c0.667-0.073,1.317-0.228,1.983-0.293c4.666-0.471,9.397-0.715,14.184-0.715
			c4.788,0,9.519,0.244,14.184,0.715c0.667,0.065,1.317,0.219,1.983,0.293c4.04,0.463,8.047,1.024,11.973,1.829
			c0.098,0.016,0.187,0.049,0.284,0.073c54.364,11.266,97.267,54.161,108.557,108.508c0.024,0.122,0.065,0.236,0.089,0.358
			c0.797,3.894,1.349,7.877,1.821,11.876c0.081,0.699,0.236,1.382,0.309,2.081c0.471,4.666,0.715,9.389,0.715,14.176
			c0,4.788-0.244,9.51-0.715,14.176c-0.073,0.699-0.228,1.382-0.309,2.081c-0.463,3.999-1.016,7.982-1.821,11.876
			c-0.024,0.122-0.065,0.244-0.089,0.374C368.546,325.679,325.667,368.55,271.344,379.832z"/>
		<circle style="fill:#010002;" cx="242.853" cy="242.849" r="21.338"/>
	</g>
</g>
<g>
</g>
<g>
</g>
<g>
</g>
<g>
</g>
<g>
</g>
<g>
</g>
<g>
</g>
<g>
</g>
<g>
</g>
<g>
</g>
<g>
</g>
<g>
</g>
<g>
</g>
<g>
</g>
<g>
</g>
</svg>
