<?xml version="1.0" encoding="iso-8859-1"?>
<!-- Generator: Adobe Illustrator 18.1.1, SVG Export Plug-In . SVG Version: 6.00 Build 0)  -->
<svg version="1.1" id="Capa_1" xmlns="http://www.w3.org/2000/svg" xmlns:xlink="http://www.w3.org/1999/xlink" x="0px" y="0px"
	 viewBox="0 0 474.27 474.27" style="enable-background:new 0 0 474.27 474.27;" xml:space="preserve">
<g>
	<g>
		<path style="fill:#010002;" d="M237.135,474.27c130.968,0,237.135-106.167,237.135-237.135S368.103,0,237.135,0
			S0,106.167,0,237.135S106.167,474.27,237.135,474.27z M60.639,200.556C75.197,130.212,130.87,74.742,201.32,60.485v65.557h73.157
			V60.81c69.727,14.753,124.7,69.914,139.161,139.746h-66.167v73.157h66.167c-14.453,69.833-69.434,124.993-139.161,139.746v-65.232
			H201.32v65.557c-70.45-14.266-126.123-69.727-140.681-140.072h66.167v-73.157H60.639z"/>
		<circle style="fill:#010002;" cx="239.842" cy="237.135" r="18.964"/>
	</g>
</g>
<g>
</g>
<g>
</g>
<g>
</g>
<g>
</g>
<g>
</g>
<g>
</g>
<g>
</g>
<g>
</g>
<g>
</g>
<g>
</g>
<g>
</g>
<g>
</g>
<g>
</g>
<g>
</g>
<g>
</g>
</svg>
