<?xml version="1.0" encoding="iso-8859-1"?>
<!-- Generator: Adobe Illustrator 18.1.1, SVG Export Plug-In . SVG Version: 6.00 Build 0)  -->
<svg version="1.1" id="Capa_1" xmlns="http://www.w3.org/2000/svg" xmlns:xlink="http://www.w3.org/1999/xlink" x="0px" y="0px"
	 viewBox="0 0 349.464 349.464" style="enable-background:new 0 0 349.464 349.464;" xml:space="preserve">
<g>
	<g>
		<path style="fill:#010002;" d="M36.54,194.948c-10.848-32.102-8.437-66.554,6.79-97.003
			c15.251-30.497,41.517-53.332,73.971-64.293l-9.559-28.265C67.789,18.89,35.43,47.017,16.641,84.603
			c-18.808,37.621-21.785,80.207-8.36,119.904L36.54,194.948z"/>
		<path style="fill:#010002;" d="M332.825,84.603c-18.79-37.579-51.148-65.713-91.108-79.216l-9.559,28.265
			c32.454,10.967,58.726,33.802,73.971,64.293c15.227,30.455,17.638,64.902,6.79,97.003l28.259,9.559
			C354.61,164.809,351.633,122.224,332.825,84.603z"/>
		<path style="fill:#010002;" d="M293.921,293.527l-21.839-20.323c-48.135,51.727-128.992,55.026-180.247,7.333l-20.323,21.839
			c29.995,27.913,68.177,41.702,106.377,41.702C220.284,344.078,262.696,327.078,293.921,293.527z"/>
		<circle style="fill:#010002;" cx="174.733" cy="166.319" r="14.613"/>
	</g>
</g>
<g>
</g>
<g>
</g>
<g>
</g>
<g>
</g>
<g>
</g>
<g>
</g>
<g>
</g>
<g>
</g>
<g>
</g>
<g>
</g>
<g>
</g>
<g>
</g>
<g>
</g>
<g>
</g>
<g>
</g>
</svg>
