<?xml version="1.0" encoding="iso-8859-1"?>
<!-- Generator: Adobe Illustrator 18.1.1, SVG Export Plug-In . SVG Version: 6.00 Build 0)  -->
<svg version="1.1" id="Capa_1" xmlns="http://www.w3.org/2000/svg" xmlns:xlink="http://www.w3.org/1999/xlink" x="0px" y="0px"
	 viewBox="0 0 350.977 350.977" style="enable-background:new 0 0 350.977 350.977;" xml:space="preserve">
<g>
	<g>
		<path style="fill:#010002;" d="M8.95,173.759c-0.203,0.352-0.34,0.716-0.489,1.08c-0.298,0.358-0.597,0.716-0.841,1.128
			c-2.548,4.23-1.181,9.732,3.055,12.286l23.587,14.207c1.444,0.871,3.037,1.283,4.606,1.283c3.031,0,5.991-1.545,7.673-4.338
			c2.548-4.231,1.181-9.732-3.055-12.286l-16.14-9.72c13.968-27.286,26.183-77.068-13.772-101.144
			c-4.231-2.548-9.732-1.181-12.292,3.049c-2.548,4.236-1.181,9.738,3.049,12.292c15.854,9.553,21.487,25.228,17.202,47.92
			C18.061,157.923,9.034,173.604,8.95,173.759z"/>
		<path style="fill:#010002;" d="M139.589,36.539c3.031,0,5.991-1.545,7.673-4.332c2.548-4.236,1.181-9.738-3.049-12.292
			L120.626,5.703c-0.424-0.257-0.871-0.448-1.319-0.621c-0.072-0.03-0.143-0.078-0.215-0.101c-0.453-0.167-0.919-0.269-1.378-0.358
			c-0.107-0.024-0.215-0.066-0.328-0.078c-0.424-0.066-0.853-0.072-1.283-0.078c-0.149,0-0.304-0.03-0.453-0.018
			c-0.382,0.018-0.758,0.09-1.134,0.149c-0.191,0.03-0.388,0.042-0.573,0.084c-0.334,0.078-0.656,0.209-0.979,0.328
			c-0.215,0.078-0.442,0.131-0.65,0.227c-0.292,0.131-0.561,0.31-0.835,0.477c-0.221,0.131-0.453,0.239-0.662,0.388
			c-0.263,0.185-0.489,0.418-0.728,0.632c-0.197,0.173-0.412,0.328-0.591,0.525c-0.227,0.245-0.418,0.531-0.621,0.806
			c-0.149,0.197-0.316,0.37-0.453,0.585c-0.095,0.149-9.738,15.46-24.387,27.131c-18.086,14.392-34.578,16.743-50.414,7.19
			c-4.231-2.542-9.732-1.181-12.292,3.049c-2.548,4.236-1.181,9.738,3.049,12.292c9.607,5.788,19.112,8.21,28.259,8.21
			c27.812,0,52.276-22.423,66-41.106l16.337,9.845C136.42,36.128,138.019,36.539,139.589,36.539z"/>
		<path style="fill:#010002;" d="M317.348,42.972c-15.836,9.553-32.334,7.202-50.402-7.196
			c-14.649-11.671-24.291-26.976-24.387-27.131c-0.137-0.215-0.31-0.394-0.459-0.591c-0.203-0.269-0.388-0.555-0.615-0.794
			c-0.179-0.191-0.388-0.346-0.579-0.519c-0.245-0.221-0.477-0.453-0.746-0.638c-0.191-0.137-0.406-0.233-0.609-0.358
			c-0.298-0.179-0.585-0.37-0.901-0.507c-0.179-0.078-0.364-0.125-0.549-0.191c-0.358-0.131-0.716-0.274-1.086-0.364
			c-0.149-0.036-0.304-0.042-0.453-0.066c-0.418-0.078-0.829-0.149-1.253-0.167c-0.119-0.006-0.239,0.018-0.358,0.018
			c-0.459,0-0.919,0.012-1.372,0.084c-0.095,0.012-0.185,0.048-0.274,0.066c-0.483,0.09-0.961,0.203-1.432,0.376
			c-0.072,0.03-0.143,0.072-0.215,0.101c-0.448,0.179-0.895,0.37-1.319,0.621l-23.587,14.207c-4.23,2.554-5.597,8.055-3.049,12.292
			c1.683,2.787,4.642,4.332,7.673,4.332c1.575,0,3.168-0.412,4.612-1.283l16.337-9.845c13.724,18.682,38.188,41.106,66,41.106
			c9.141,0,18.658-2.429,28.259-8.21c4.23-2.554,5.597-8.055,3.049-12.292C327.08,41.784,321.566,40.424,317.348,42.972z"/>
		<path style="fill:#010002;" d="M346.645,91.59c4.23-2.554,5.597-8.055,3.049-12.292c-2.56-4.236-8.073-5.597-12.292-3.049
			c-39.954,24.07-27.746,73.852-13.772,101.144l-16.14,9.72c-4.236,2.554-5.597,8.055-3.055,12.286
			c1.683,2.792,4.642,4.338,7.673,4.338c1.575,0,3.168-0.412,4.606-1.283l23.587-14.207c4.236-2.554,5.597-8.055,3.055-12.286
			c-0.245-0.406-0.537-0.758-0.835-1.11c-0.155-0.376-0.298-0.752-0.507-1.11C341.675,173.157,308.165,114.771,346.645,91.59z"/>
		<path style="fill:#010002;" d="M165.485,337.574c-0.024-45.318-46.166-60.922-76.847-63.708l-0.006-19.1
			c0-4.941-4.01-8.944-8.95-8.944c0,0,0,0-0.006,0c-4.941,0-8.944,4.01-8.944,8.956l0.012,27.531c0,0.28,0.06,0.537,0.084,0.811
			c0.03,0.31,0.036,0.632,0.095,0.931c0.06,0.31,0.173,0.603,0.269,0.901c0.084,0.257,0.137,0.531,0.239,0.776
			c0.125,0.304,0.298,0.585,0.459,0.871c0.119,0.215,0.221,0.448,0.358,0.656c0.179,0.275,0.4,0.513,0.609,0.758
			c0.161,0.191,0.298,0.394,0.471,0.573c0.221,0.221,0.471,0.406,0.716,0.603c0.203,0.167,0.388,0.352,0.609,0.501
			c0.239,0.167,0.507,0.286,0.764,0.43c0.251,0.137,0.489,0.292,0.752,0.406c0.257,0.113,0.537,0.173,0.806,0.263
			c0.286,0.095,0.567,0.209,0.871,0.269c0.274,0.06,0.573,0.066,0.853,0.095c0.292,0.036,0.579,0.095,0.883,0.101
			c0.68,0.006,67.992,1.408,68.004,46.333c0,4.941,4.01,8.944,8.95,8.944c0,0,0,0,0.006,0
			C161.481,346.53,165.485,342.52,165.485,337.574z"/>
		<path style="fill:#010002;" d="M236.503,298.079c17.555-6.534,35.64-6.904,35.819-6.904c0.406-0.006,0.8-0.078,1.187-0.137
			c0.453,0.072,0.913,0.137,1.384,0.137c0,0,0,0,0.006,0c4.941,0,8.944-4.01,8.944-8.956l-0.012-27.531
			c0-4.941-4.01-8.944-8.95-8.944c0,0,0,0-0.006,0c-4.941,0-8.944,4.01-8.944,8.956l0.006,18.843
			c-30.58,2.13-79.515,17.37-79.497,64.03c0,4.941,4.01,8.944,8.95,8.944c0,0,0,0,0.006,0c4.941,0,8.944-4.01,8.944-8.956
			C204.341,319.053,214.861,306.134,236.503,298.079z"/>
		<circle style="fill:#010002;" cx="175.485" cy="159.069" r="14.171"/>
		<path style="fill:#010002;" d="M274.231,85.927l-41.094,27.412c-5.484,3.658-6.963,11.069-3.312,16.546
			c2.303,3.449,6.086,5.316,9.941,5.316c2.273,0,4.577-0.644,6.605-2.005l41.094-27.412c5.484-3.658,6.963-11.069,3.312-16.546
			C287.12,83.755,279.709,82.257,274.231,85.927z"/>
		<path style="fill:#010002;" d="M175.814,214.555c-0.036,0-0.072,0-0.107,0c-6.546,0-11.874,5.275-11.934,11.826l-0.442,49.394
			c-0.06,6.587,5.239,11.981,11.826,12.041c0.036,0,0.072,0,0.107,0c6.546,0,11.874-5.275,11.934-11.826l0.442-49.394
			C187.7,220.003,182.401,214.615,175.814,214.555z"/>
		<path style="fill:#010002;" d="M76.74,85.927c-5.495-3.67-12.894-2.172-16.546,3.312c-3.652,5.478-2.172,12.888,3.312,16.546
			l41.094,27.412c2.035,1.36,4.338,2.005,6.605,2.005c3.855,0,7.638-1.862,9.941-5.316c3.652-5.478,2.172-12.888-3.312-16.546
			L76.74,85.927z"/>
	</g>
</g>
<g>
</g>
<g>
</g>
<g>
</g>
<g>
</g>
<g>
</g>
<g>
</g>
<g>
</g>
<g>
</g>
<g>
</g>
<g>
</g>
<g>
</g>
<g>
</g>
<g>
</g>
<g>
</g>
<g>
</g>
</svg>
