<svg height="512" viewBox="0 0 64 64" width="512" xmlns="http://www.w3.org/2000/svg"><g id="flat"><path d="m60 23h-33v-8h29z" fill="#5a6470"/><path d="m58 19h-10l-2-4h10z" fill="#7d8d9c"/><g fill="#cfdfe8"><path d="m44.071 23.371-2-5 1.858-.742 2.387 5.968z"/><path d="m40.071 23.371-2-5 1.858-.742 2.458 6.146z"/><path d="m36.071 23.371-2-5 1.858-.742 2.297 5.742z"/><path d="m32.071 23.371-2-5 1.858-.742 2.387 5.968z"/></g><path d="m35 27a18.925 18.925 0 0 1 4 6h2v-6z" fill="#394d5c"/><path d="m47 34h-13a1 1 0 0 1 -.832-.445l-4.833-7.294 2.5.184 3.7 5.555h12.465z" fill="#5a6470"/><path d="m3 17h24v6h-24z" fill="#394d5c"/><path d="m5 23h18v4h-18z" fill="#5a6470"/><path d="m48 15 2-4h2l2 4z" fill="#5a6470"/><path d="m58 27 2-4h-18v4l4 2 2 20h-4l1 4h12l4-3-4-18a7.943 7.943 0 0 1 1-5z" fill="#394d5c"/><path d="m23 23h19v4h-19z" fill="#7d8d9c"/><path d="m3 17 6-4 1 4z" fill="#5a6470"/><path d="m55 50a2 2 0 1 1 2-2 2 2 0 0 1 -2 2z" fill="#cfdfe8"/><path d="m51 30a2 2 0 1 1 2-2 2 2 0 0 1 -2 2z" fill="#cfdfe8"/><path d="m51 45.994a.99.99 0 0 1 -.354-.065 1 1 0 0 1 -.646-.852l-1-13a1 1 0 0 1 .367-.853 1.011 1.011 0 0 1 .911-.184 3.158 3.158 0 0 0 2.986-.72l1.466 1.36a4.635 4.635 0 0 1 -3.642 1.464l.785 10.156a8.285 8.285 0 0 1 5.37-.273l-.486 1.94c-3.345-.836-4.99.68-5.059.746a1.018 1.018 0 0 1 -.698.281z" fill="#7d8d9c"/><path d="m53 35h2v2h-2z" fill="#7d8d9c"/><path d="m54 39h2v2h-2z" fill="#7d8d9c"/><path d="m6 17h2v3h-2z" fill="#cfdfe8"/><path d="m10 17h2v3h-2z" fill="#cfdfe8"/></g></svg>